<svg version="1.1" id="file-icon" xmlns="http://www.w3.org/2000/svg" xmlns:xlink="http://www.w3.org/1999/xlink" x="0px" y="0px"
	 viewBox="-1479 981 34.1 40" enable-background="new -1479 981 34.1 40" xml:space="preserve">
	<g>
		<path d="M-1444.9,1021h-34.1v-40h17.3c1.7,0,3,0.5,4,1.5c1.4,1.5,1.4,3.5,1.4,3.7l0,6.9h6.3c2,0,3.2,0.8,3.8,1.6
			c1.5,1.7,1.4,4.2,1.3,4.8V1021z M-1476.5,1018.5h29.1l0-19.3c0.1-0.5,0-2.1-0.7-2.9c-0.4-0.5-1.1-0.7-1.9-0.7h-8.8v-9.4
			c0,0,0-1.2-0.7-2c-0.5-0.5-1.2-0.7-2.1-0.7h-14.8V1018.5z"/>
	</g>
</svg>
