<svg version="1.1" id="Layer_1" xmlns="http://www.w3.org/2000/svg" xmlns:xlink="http://www.w3.org/1999/xlink" x="0px" y="0px"
   viewBox="0 0 30 30" enable-background="new 0 0 30 30" xml:space="preserve">
<path d="M30,15.1c-0.3,8.6-7.3,15.2-15.7,14.9c-4.3-0.2-8.1-2.2-10.7-5.2c-0.6,0.3-1,0.6-1.1,0.6c-0.2,0.1-0.5,0-0.5-0.3
  c0-0.2,0-4.7,0-5c0-0.2,0.3-0.4,0.5-0.3c0.2,0.1,4,2.5,4.3,2.7c0.2,0.1,0.2,0.4,0,0.5c-0.1,0-0.7,0.4-1.4,0.8c2.3,2.4,5.4,4,9,4.2
  C21.6,28.2,27.7,22.4,28,15c0-0.5,0-1,0-1.6l0,0c0-0.5,0.4-1,0.9-1c0.6,0,1,0.4,1.1,1c0,0.1,0,0.1,0,0.2l0,0C30,14,30,14.6,30,15.1z
   M14,8.8c0-0.6,0.5-1,1-1s1,0.5,1,1l0.4,5.6l2.6,3.2c0.4,0.4,0.4,1.1,0,1.5c-0.4,0.4-1.1,0.4-1.5,0l-3.3-2.7
  c-0.5-0.2-0.9-0.5-0.9-0.9l0-0.1c0-0.1,0-0.3,0-0.4L14,8.8z M27.5,9.8c-0.2-0.1-4.2-2.3-4.4-2.5c-0.2-0.1-0.2-0.4,0-0.5
  c0.1-0.1,0.7-0.4,1.4-0.8c-2.4-2.4-5.6-3.8-9.2-3.8C7.9,2.1,2,8.1,2,15.5c0,0.5,0,1,0.1,1.5h0c0,0.5-0.4,1-0.9,1.1
  c-0.6,0.1-1.1-0.3-1.1-0.9c0-0.1,0-0.1,0-0.1h0C0,16.5,0,16,0,15.5C0,6.9,6.8,0,15.2,0c4.3,0,8.2,1.8,11,4.8c0.6-0.3,1-0.6,1-0.6
  c0.2-0.1,0.5,0,0.5,0.3c0,0.2,0.1,4.7,0.2,5C27.9,9.7,27.7,9.9,27.5,9.8z"/>
</svg>
