<svg version="1.1" xmlns="http://www.w3.org/2000/svg" xmlns:xlink="http://www.w3.org/1999/xlink" x="0px" y="0px"
   viewBox="0 0 30 30" enable-background="new 0 0 30 30" xml:space="preserve">
  <path d="M25.7,4.5l-0.2-0.2c-5.8-5.8-15.2-5.8-20.9,0L4.3,4.5c-5.8,5.8-5.8,15.2,0,20.9l0.2,0.2c5.8,5.8,15.2,5.8,20.9,0l0.2-0.2
    C31.4,19.7,31.4,10.3,25.7,4.5z M24.3,24.1l-0.2,0.2c-5,5-13.3,5-18.3,0l-0.2-0.2c-5-5-5-13.3,0-18.3l0.2-0.2c5-5,13.3-5,18.3,0
    l0.2,0.2C29.4,10.9,29.4,19.1,24.3,24.1z"/>
  <path d="M16.4,5.2c-0.4,0-1.2,8.7-1.3,10.3c-2,0.2-6.4,0.8-6.4,1.2c0,0.5,6.4,1.3,7.3,1.3c0.1,0,0.2,0,0.3,0c0,0,0,0,0,0
    c0.2,0,0.3-0.1,0.5-0.2c0.5-0.2,0.8-0.6,0.8-1.1c0-0.1,0-0.2-0.1-0.3c0-0.2,0.1-0.5,0.1-0.7C17.7,14.4,16.9,5.2,16.4,5.2z"/>
</svg>
