<svg version="1.1" class="svg-icon-folder" xmlns="http://www.w3.org/2000/svg" xmlns:xlink="http://www.w3.org/1999/xlink" x="0px" y="0px"
   viewBox="0 0 42 36.6" enable-background="new 0 0 42 36.6" xml:space="preserve">
  <g>
    <g opacity="0.4">
      <path fill="#13AFD7" d="M35.6,4.5H18.2l-2.3-3.3H6.5c-1.7,0-3.1,1.4-3.1,3.1v4.5l2.3,17.8v1c0,1.7,1.4,3.1,3.1,3.1h24.5
        c1.7,0,3.1-1.4,3.1-3.1v-1l2.3-16.1V7.6C38.7,5.9,37.3,4.5,35.6,4.5z"/>
    </g>
    <g>
      <path fill="#13AFD7" d="M33.3,32H8.8c-2.4,0-4.3-1.9-4.3-4.3v-1L2.2,8.8V4.3C2.2,1.9,4.1,0,6.5,0h10l2.3,3.3h16.7
        c2.4,0,4.3,1.9,4.3,4.3l0,3l-2.3,16v1C37.6,30,35.6,32,33.3,32z M4.5,8.7l2.3,17.9v1c0,1.1,0.9,2,2,2h24.5c1.1,0,2-0.9,2-2l0-1.2
        l2.3-16V7.6c0-1.1-0.9-2-2-2H17.6l-2.3-3.3H6.5c-1.1,0-2,0.9-2,2V8.7z"/>
    </g>
  </g>
  <g>
    <path fill="#F1F2F5" d="M37.4,35.4H4.6c-1.3,0-2.3-1-2.3-2.3L1.2,12.4c0-1.3,1-2.3,2.3-2.3h35.1c1.3,0,2.3,1,2.3,2.3l-1.2,20.8
      C39.7,34.4,38.7,35.4,37.4,35.4z"/>
    <path fill="#13AFD7" d="M37.4,36.6H4.6c-1.9,0-3.5-1.6-3.5-3.5L0,12.4c0-2,1.6-3.5,3.5-3.5h35.1c1.9,0,3.5,1.6,3.5,3.5l-1.2,20.8
      C40.8,35.1,39.3,36.6,37.4,36.6z M3.5,11.2c-0.6,0-1.2,0.5-1.2,1.2l1.2,20.7c0,0.7,0.5,1.2,1.2,1.2h32.8c0.6,0,1.2-0.5,1.2-1.2
      l1.2-20.8c0-0.6-0.5-1.1-1.2-1.1H3.5z"/>
  </g>
</svg>

