<svg version="1.1" xmlns="http://www.w3.org/2000/svg" xmlns:xlink="http://www.w3.org/1999/xlink" x="0px" y="0px"
   viewBox="0 0 24.6 30" enable-background="new 0 0 24.6 30" xml:space="preserve">
  <path d="M20.9,11.7L20.9,11.7l-0.1-3.2C20.8,3.8,17,0,12.3,0S3.8,3.8,3.8,8.5v3.2H3.8c-2.1,0-3.8,1.7-3.8,3.8v10.8
    C0,28.3,1.7,30,3.8,30h17.1c2.1,0,3.8-1.7,3.8-3.8V15.4C24.6,13.4,23,11.7,20.9,11.7z M22.8,26.2c0,1-0.8,1.9-1.9,1.9H3.8
    c-1,0-1.9-0.8-1.9-1.9V15.4c0-1,0.8-1.9,1.9-1.9h0.1h1.9h13.2h1.9h0.1c1,0,1.9,0.8,1.9,1.9V26.2z M5.7,8.5c0-3.6,3-6.6,6.6-6.6
    s6.6,3,6.6,6.6v3.2H5.7V8.5z"/>
</svg>
