<svg version="1.1" xmlns="http://www.w3.org/2000/svg" xmlns:xlink="http://www.w3.org/1999/xlink" x="0px" y="0px"
	 viewBox="0 0 16 30" enable-background="new 0 0 16 30" xml:space="preserve">
<g>
	<path d="M13.501,0H2.499C1.124,0,0,1.126,0,2.502v25.002C0,28.878,1.124,30,2.499,30h11.001C14.876,30,16,28.878,16,27.504V2.502
		C16,1.126,14.876,0,13.501,0z M6.5,2H9.5c0.275,0,0.503,0.222,0.503,0.502c0,0.272-0.228,0.5-0.503,0.5H6.5
		c-0.272,0-0.5-0.229-0.5-0.5C6,2.222,6.228,2,6.5,2z M7.999,29.001c-0.824,0-1.493-0.671-1.493-1.499
		c0-0.829,0.669-1.501,1.493-1.501s1.493,0.671,1.493,1.501C9.492,28.33,8.823,29.001,7.999,29.001z M15.005,25H1V4.998h14.005V25z"
		/>
</g>
</svg>
