<svg version="1.1" id="icon" xmlns="http://www.w3.org/2000/svg" xmlns:xlink="http://www.w3.org/1999/xlink" x="0px" y="0px"
	 viewBox="0 0 42 42" enable-background="new 0 0 42 42" xml:space="preserve">
	<g>
		<g>
			<path fill="#AAB4C4" d="M42,42H0V0h42V42z M2.4,39.6h37.3V2.4H2.4V39.6z"/>
		</g>
		<g>
			<path fill="#F07779" d="M14.8,30.6c-0.2,0-0.4,0-0.5-0.1c-0.3-0.2-0.5-0.5-0.5-0.9V12.5c0-0.4,0.2-0.7,0.5-0.9
				c0.3-0.2,0.7-0.2,1.1,0l14.8,8.5c0.3,0.2,0.5,0.5,0.5,0.9s-0.2,0.7-0.5,0.9l-14.8,8.5C15.2,30.5,15,30.6,14.8,30.6z M15.8,14.3
				v13.4L27.5,21L15.8,14.3z"/>
		</g>
	</g>
</svg>
