<svg version="1.1" id="icon" class="filetype-ppt" xmlns="http://www.w3.org/2000/svg" xmlns:xlink="http://www.w3.org/1999/xlink" x="0px" y="0px"
	 viewBox="0 0 42.5 50" enable-background="new 0 0 42.5 50" xml:space="preserve">
	<g>
		<g>
			<path fill="#AAB4C4" d="M42.5,50H0V0h21.6c2,0,3.6,0.6,4.7,1.8C28.1,3.6,28,6.1,28,6.2l0,9.1h8.3c1.9,0,3.4,0.6,4.5,1.8
				c1.9,2.1,1.7,5.3,1.6,5.8V50z M2.4,47.6h37.7l0-24.8c0,0,0.3-2.6-1-4c-0.6-0.7-1.5-1-2.7-1H25.6V6.2c0-0.1,0-1.7-1-2.8
				c-0.7-0.7-1.7-1-3-1H2.4V47.6z"/>
		</g>
		<g>
				<rect x="22.1" y="8.9" transform="matrix(0.6864 0.7272 -0.7272 0.6864 17.5637 -20.5125)" fill="#AAB4C4" width="20.9" height="2.4"/>
		</g>
		<g>
			<rect x="6.7" y="11.6" fill="#EF9E67" width="14.3" height="2.4"/>
		</g>
		<g>
			<rect x="6.7" y="18.1" fill="#EF9E67" width="14.3" height="2.4"/>
		</g>
		<g>
			<rect x="25.8" y="24.6" fill="#EF9E67" width="9.3" height="2.4"/>
		</g>
		<g>
			<rect x="25.8" y="31.2" fill="#EF9E67" width="9.3" height="2.4"/>
		</g>
		<g>
			<rect x="25.8" y="37.7" fill="#EF9E67" width="9.3" height="2.4"/>
		</g>
		<g opacity="0.4">
			<polyline fill-rule="evenodd" clip-rule="evenodd" fill="#AAB4C4" points="26.8,4.5 26.8,16.5 38.2,16.5 		"/>
		</g>
		<g opacity="0.4">
			<path fill="#EF9E67" d="M14.5,40.1c-4.3,0-7.7-3.5-7.7-7.7s3.5-7.7,7.7-7.7s7.7,3.5,7.7,7.7S18.7,40.1,14.5,40.1z M14.5,27
				c-2.9,0-5.3,2.4-5.3,5.3s2.4,5.3,5.3,5.3s5.3-2.4,5.3-5.3S17.4,27,14.5,27z"/>
		</g>
		<g>
			<g opacity="0.4">
				<path fill="#EF9E67" d="M21,32.4c0-3.6-2.9-6.5-6.5-6.5v6.5H21z"/>
			</g>
			<g>
				<path fill="#EF9E67" d="M21,33.5h-6.5c-0.7,0-1.2-0.5-1.2-1.2v-6.5c0-0.7,0.5-1.2,1.2-1.2c4.3,0,7.7,3.5,7.7,7.7
					C22.2,33,21.7,33.5,21,33.5z M15.7,31.2h4c-0.5-2-2-3.6-4-4V31.2z"/>
			</g>
		</g>
	</g>
</svg>