<svg version="1.1" id="icon-speed-svg" xmlns="http://www.w3.org/2000/svg" xmlns:xlink="http://www.w3.org/1999/xlink" x="0px" y="0px"
   viewBox="0 0 29.9 26" enable-background="new 0 0 29.9 26" xml:space="preserve">
<g>
  <path d="M15.1,0h-0.3C6.6,0-0.1,6.6-0.1,14.7V15c0,3.9,1.6,7.6,4.4,10.4L5,26l2.5-2.5l-1.3-1.3L5,23.4c-1.5-1.7-2.5-3.7-2.9-5.9
    h2.8v-1.9h-3c0-0.2,0-0.5,0-0.7v-0.3c0-2.9,1-5.6,2.7-7.8L6.7,9L8,7.7L5.8,5.5c2.2-2.1,5-3.4,8.2-3.6v3.2h1.9V1.9
    c3.3,0.2,6.2,1.6,8.4,3.7l-2.1,2L23.5,9l2-1.9c1.6,2.1,2.6,4.8,2.6,7.6V15c0,0.2,0,0.5,0,0.7h-3v1.9h2.8c-0.4,2.1-1.4,4.1-2.8,5.7
    l-1.3-1.3l-1.3,1.3l2.7,2.7l0.7-0.7c2.7-2.8,4.2-6.4,4.2-10.2v-0.3C29.9,6.6,23.3,0,15.1,0z"/>
  <path d="M14.1,14.1c-0.6,0.6-0.7,1.5-0.2,2c0.5,0.5,1.4,0.4,2-0.2c0.6-0.6,4.6-5.7,4.3-6C19.8,9.6,14.7,13.5,14.1,14.1z"/>
</g>
</svg>
