<svg version="1.1" xmlns="http://www.w3.org/2000/svg" xmlns:xlink="http://www.w3.org/1999/xlink" x="0px" y="0px"
   viewBox="0 0 40 40" enable-background="new 0 0 40 40" xml:space="preserve">
<g>
  <g>
    <polygon points="28.9,30 40,20 28.9,10 27.2,11.9 34.8,18.7 19,18.7 19,21.2 34.8,21.2 27.2,28.1    "/>
    <path d="M20.2,37.5h-0.4c-9.5,0-17.3-7.8-17.3-17.3v-0.4c0-9.5,7.8-17.3,17.3-17.3h0.4c4.5,0,8.8,1.8,12.1,4.9L34,5.7
      C30.3,2,25.4,0,20.2,0h-0.4C8.9,0,0,8.9,0,19.8v0.4C0,31.1,8.9,40,19.8,40h0.4c5.3,0,10.3-2.1,14-5.9l-1.8-1.8
      C29.2,35.7,24.8,37.5,20.2,37.5z"/>
  </g>
</g>
</svg>
