<svg version="1.1" id="icon-area-svg" xmlns="http://www.w3.org/2000/svg" xmlns:xlink="http://www.w3.org/1999/xlink" x="0px" y="0px"
   viewBox="0 0 30 30" enable-background="new 0 0 30 30" xml:space="preserve">
<path d="M0,0v30h30V0H0z M28.1,7.2h-5.6V1.9h5.6V7.2z M15.7,7.2V1.9h4.9v5.4H15.7z M20.6,9.1v4.9h-4.9V9.1H20.6z M13.8,7.2H8.4V1.9
  h5.4V7.2z M13.8,9.1v4.9H8.4V9.1H13.8z M6.6,14.1H1.9V9.1h4.7V14.1z M6.6,15.9v5.4H1.9v-5.4H6.6z M8.4,15.9h5.4v5.4H8.4V15.9z
   M13.8,23.2v4.9H8.4v-4.9H13.8z M15.7,23.2h4.9v4.9h-4.9V23.2z M15.7,21.3v-5.4h4.9v5.4H15.7z M22.5,15.9h5.6v5.4h-5.6V15.9z
   M22.5,14.1V9.1h5.6v4.9H22.5z M6.6,1.9v5.4H1.9V1.9H6.6z M1.9,23.2h4.7v4.9H1.9V23.2z M22.5,28.1v-4.9h5.6v4.9H22.5z"/>
</svg>
