<svg version="1.1" id="icon" xmlns="http://www.w3.org/2000/svg" xmlns:xlink="http://www.w3.org/1999/xlink" x="0px" y="0px"
   viewBox="0 0 40 40" enable-background="new 0 0 40 40" xml:space="preserve">
<g>
  <path d="M21.9,6.4c0.4-2.2,2.4-3.9,4.8-3.9c2.7,0,4.8,2.1,4.8,4.7c0,2.5-2.2,4.6-4.8,4.6V13l0-1.2c-1.2,0-2.2-0.4-3-1.1
    c0.1,0.4,0.1,0.8,0.1,1.3c0,0.6-0.1,1.1-0.2,1.6c0.9,0.4,2,0.7,3.1,0.7h0.1c4,0,7.3-3.2,7.3-7.1c0-3.9-3.2-7.2-7.3-7.2
    c-3,0-5.6,1.8-6.7,4.4C20.7,5,21.4,5.7,21.9,6.4z"/>
  <path d="M40,30.7l-1.2-7.9c-0.5-3.3-3.7-5.8-7.7-5.8l-8.9-0.1c-0.8,1.3-1.9,2.4-3.2,3.1c0.1,0,0.2,0,0.2,0c0.8-0.4,1.8-0.7,2.9-0.7
    h0l9,0.1c2.7,0,5,1.6,5.3,3.7l1.2,7.9c0,0.2-0.1,0.5-0.2,0.6C37,31.9,36.6,32,36.4,32v1.2l0-1.2l-7-0.1l0.4,2.5l6.6,0.1h0
    c1.2,0,2.1-0.7,2.6-1.1C39.7,32.8,40.1,31.7,40,30.7z"/>
  <path d="M27.2,34.5L26.8,32l-0.6-3.7c-0.5-3.3-3.8-5.7-7.8-5.8l-1.5,0l-2.6,0l-5.1,0c-4,0-7.3,2.4-7.9,5.6L0,35.9
    c-0.2,1,0.2,2.1,1,2.8c0.5,0.4,1.4,1.1,2.6,1.1L23.8,40h0c1.2,0,2.2-0.7,2.6-1.1c0.7-0.7,1.1-1.8,1-2.8L27.2,34.5z M24.8,37
    c-0.3,0.3-0.7,0.5-1,0.5v1.2l0-1.2L3.6,37.3c-0.3,0-0.6-0.2-1-0.5c-0.1-0.1-0.2-0.4-0.2-0.5l1.3-7.8c0.3-2,2.7-3.6,5.4-3.6h0l4.7,0
    l2.5,0l2,0c2.8,0,5.1,1.6,5.4,3.7l0.5,3.3l0.4,2.5l0.3,2.1C25,36.6,24.9,36.9,24.8,37z"/>
  <path d="M13.9,18.9L13.9,18.9c4,0,7.3-3.1,7.3-7c0,0,0-0.1,0-0.1c0-1.8-0.7-3.4-1.8-4.6c-1.3-1.4-3.2-2.4-5.4-2.4
    c-4,0-7.2,3.1-7.2,7C6.7,15.7,9.9,18.9,13.9,18.9z M14,7.3c2.6,0,4.7,2.1,4.7,4.6c0,2.5-2.1,4.5-4.7,4.5v1.2l0-1.2
    c-2.6,0-4.7-2.1-4.7-4.6C9.2,9.4,11.4,7.3,14,7.3z"/>
</g>
</svg>
