<svg version="1.1" id="iocn-volume-svg" xmlns="http://www.w3.org/2000/svg" xmlns:xlink="http://www.w3.org/1999/xlink" x="0px" y="0px"
   viewBox="0 0 22 30" enable-background="new 0 0 22 30" xml:space="preserve">
<path d="M20,0H1C0.6,0,0.3,0.2,0.1,0.5c-0.4,0.7,0,1.3,1.1,2.9c0.5,0.8,1.6,2.4,1.6,2.9v20.2c0,1.9,1,3.4,2.3,3.4h14.6
  c1.3,0,2.4-1.5,2.4-3.4V3.4C22,1.5,21.2,0,20,0z M20.3,5.7H9.7v1.9h10.6v5.3H14v1.9h6.3v5.8h-6.9v1.9h6.9v4.2c0,0.8-0.6,1.4-0.7,1.5
  H5.1C5,28,4.6,27.4,4.6,26.6V6.4c0-0.9-0.8-2.1-1.9-3.9C2.6,2.3,2.5,2.1,2.4,1.9h17.5C20,2,20.3,2.6,20.3,3.4V5.7z"/>
</svg>
