<svg version="1.1" xmlns="http://www.w3.org/2000/svg" xmlns:xlink="http://www.w3.org/1999/xlink" x="0px" y="0px"
	 viewBox="0 0 25 24" enable-background="new 0 0 25 24" xml:space="preserve">
<path d="M21.765,14.172l-3.255,3.253c-1.943,1.944-5.105,1.944-7.049,0c-1.943-1.943-1.943-5.105,0-7.049l3.253-3.253l2.169,2.169
	l-3.253,3.253c-0.747,0.747-0.747,1.964,0,2.711c0.747,0.747,1.964,0.747,2.711,0l3.255-3.253c1.793-1.794,1.793-4.712,0-6.507
	L18.51,4.412c-1.793-1.794-4.712-1.794-6.507,0l-7.592,7.591c-1.794,1.794-1.794,4.714,0,6.507l1.084,1.086
	c1.353,1.353,3.346,1.682,5.015,0.995c1.079,0.722,2.298,1.126,3.545,1.27c-2.999,2.88-7.775,2.856-10.728-0.096L2.243,20.68
	c-2.99-2.991-2.99-7.856,0-10.846l7.592-7.591c2.99-2.991,7.855-2.991,10.846,0l1.084,1.084
	C24.755,6.317,24.755,11.182,21.765,14.172z"/>
</svg>
