<svg version="1.1" id="Layer_1" xmlns="http://www.w3.org/2000/svg" xmlns:xlink="http://www.w3.org/1999/xlink" x="0px" y="0px"
   viewBox="0 0 30 30" enable-background="new 0 0 30 30" xml:space="preserve">
<g>
  <path d="M30,28.7L20,18.2c-0.4,0.5-0.8,0.9-1.3,1.4L28.6,30L30,28.7z"/>
  <g>
    <path d="M10.4,20.9C4.7,20.9,0,16.2,0,10.5S4.7,0,10.4,0s10.4,4.7,10.4,10.5S16.2,20.9,10.4,20.9z M10.4,1.9
      c-4.7,0-8.6,3.8-8.6,8.6c0,4.7,3.8,8.6,8.6,8.6s8.6-3.8,8.6-8.6C19,5.7,15.2,1.9,10.4,1.9z"/>
  </g>
</g>
</svg>
