<svg version="1.1" id="Layer_1" xmlns="http://www.w3.org/2000/svg" xmlns:xlink="http://www.w3.org/1999/xlink" x="0px" y="0px"
   viewBox="0 0 36 30" enable-background="new 0 0 36 30" xml:space="preserve">
<g>
  <path d="M18.9,21c0.8-0.8,1.7-1.5,2.8-1.9c-1.9-2.6-3.7-4.5-8.6-4.5C-0.8,14.5,0,30,0,30h15.8
    C15.8,29.3,15.7,24.3,18.9,21z"/>
  <path d="M12.5,12.4c3.5,0,6.3-2.8,6.3-6.2C18.8,2.8,16,0,12.5,0S6.2,2.8,6.2,6.2C6.2,9.6,9,12.4,12.5,12.4z"/>
  <path d="M26.9,17.9c2.3,0,4.2-1.9,4.2-4.2s-1.9-4.2-4.2-4.2c-2.3,0-4.2,1.9-4.2,4.2S24.6,17.9,26.9,17.9z"/>
  <path d="M27.3,19.7c-9.2,0-8.7,10.3-8.7,10.3H36C36,30,36.6,19.7,27.3,19.7z"/>
</g>
</svg>
