<svg version="1.1" id="Layer_1" xmlns="http://www.w3.org/2000/svg" xmlns:xlink="http://www.w3.org/1999/xlink" x="0px" y="0px"
   viewBox="0 0 40 38.4" enable-background="new 0 0 40 38.4" xml:space="preserve">
<g>
  <g>
    <path d="M27.9,30.1L20,24.1L12.3,30l-4.5-2.6v2.9L20,38.4l12.3-8v-2.9L27.9,30.1z M27.9,30.1"/>
    <path d="M40,7.5L28.2,0L20,6.7l12.3,7.1L40,7.5z M40,7.5"/>
    <path d="M0,20.4l12.1,7.1l7.8-6L8.4,14.1L0,20.4z M0,20.4"/>
    <path d="M12.1,0L0,7.8l8.4,6.3L20,6.7L12.1,0z M12.1,0"/>
    <path d="M20,21.5l8,6l12-7.1l-7.7-6.6L20,21.5z M20,21.5"/>
  </g>
</g>
</svg>
