<svg version="1.1" xmlns="http://www.w3.org/2000/svg" xmlns:xlink="http://www.w3.org/1999/xlink" x="0px" y="0px"
	 viewBox="0 0 32 32" enable-background="new 0 0 32 32" xml:space="preserve">
<path d="M29.779,21.249c0.691-1.643,1.081-3.435,1.081-5.317c0-1.832-0.374-3.579-1.034-5.188c0.598-0.119,1.088-0.38,1.458-0.792
	c0.823-0.915,0.711-2.207,0.708-2.245c-0.122-2.087-1.356-4.106-3.471-5.685c-1.72-1.283-3.814-2.087-5.245-2.018
	c-2.064,0.113-3.042,1.42-3.336,2.236c-1.24-0.323-2.537-0.511-3.884-0.511c-1.425,0-2.798,0.204-4.101,0.565
	c-0.389-0.811-1.366-1.893-3.232-1.994C6.013,0.16,0.281,3.376,0.008,7.987C0.003,8.041-0.109,9.335,0.716,10.25
	c0.37,0.411,0.862,0.672,1.459,0.791c-0.585,1.527-0.921,3.169-0.921,4.891c0,1.769,0.353,3.457,0.969,5.018
	c-0.618,0.113-1.128,0.376-1.507,0.798c-0.824,0.915-0.713,2.209-0.709,2.247c0.268,4.525,5.721,7.707,8.53,7.707
	c0.064,0,0.127-0.001,0.188-0.006c1.956-0.106,2.942-1.291,3.29-2.111c1.287,0.351,2.639,0.551,4.043,0.551
	c1.331,0,2.615-0.184,3.842-0.501c0.237,0.8,1.21,2.241,3.378,2.358C23.338,31.998,23.401,32,23.466,32
	c1.412,0,3.411-0.795,5.056-2.024c2.115-1.579,3.348-3.598,3.47-5.667c0.004-0.054,0.117-1.347-0.708-2.263
	C30.905,21.624,30.396,21.363,29.779,21.249z M29.738,18.216h-6.99c1.017-2.563,0-4.498,0-4.498h6.99
	C29.738,13.717,30.359,15.873,29.738,18.216z M23.335,1.003c0.944-0.051,2.783,0.491,4.546,1.808
	c1.086,0.811,2.929,2.531,3.072,4.968c0.001,0.009,0.073,0.935-0.462,1.526c-0.256,0.283-0.631,0.431-1.104,0.483
	c-1.693-3.375-4.728-6.003-8.451-7.251C21.085,2.168,21.652,1.095,23.335,1.003z M16.057,21.766c-3.357,0-6.077-2.611-6.077-5.832
	c0-3.22,2.721-5.83,6.077-5.83c3.357,0,6.078,2.61,6.078,5.83C22.135,19.155,19.414,21.766,16.057,21.766z M13.713,2.803
	c0,0,2.246-0.593,4.689,0v6.706c-2.671-0.974-4.689,0-4.689,0V2.803z M1.508,9.602C0.973,9.012,1.045,8.084,1.047,8.06
	C1.292,3.928,6.531,1.159,8.666,1.3c1.415,0.076,2.038,0.847,2.291,1.315C7.231,3.93,4.212,6.631,2.583,10.077
	C2.125,10.022,1.759,9.878,1.508,9.602z M2.353,13.717h6.99c-1.015,2.561,0,4.497,0,4.497h-6.99
	C2.353,18.214,1.734,16.059,2.353,13.717z M8.666,30.701c-2.134,0.124-7.373-2.629-7.62-6.777c0-0.009-0.071-0.933,0.459-1.522
	c0.264-0.292,0.646-0.444,1.138-0.492c1.652,3.407,4.665,6.074,8.374,7.364C10.808,29.716,10.2,30.617,8.666,30.701z M18.403,29.207
	c0,0-2.247,0.593-4.689,0v-6.705c2.67,0.972,4.689,0,4.689,0V29.207z M30.952,24.236c-0.142,2.42-1.985,4.142-3.071,4.952
	c-1.764,1.317-3.606,1.854-4.546,1.809c-1.939-0.106-2.401-1.512-2.442-1.65c3.697-1.228,6.721-3.816,8.433-7.147
	c0.508,0.043,0.896,0.198,1.165,0.495C31.027,23.285,30.954,24.211,30.952,24.236z"/>
</svg>
