<svg version="1.1" xmlns="http://www.w3.org/2000/svg" xmlns:xlink="http://www.w3.org/1999/xlink" x="0px" y="0px"
   viewBox="0 0 35 40" enable-background="new 0 0 35 40" xml:space="preserve">
  <path d="M35,9.6c0-2.8-2-5-4.5-5h-6.6C23,1.9,20.5,0,17.5,0S12,1.9,11.1,4.6H4.5C2,4.6,0,6.8,0,9.6v3.8h2.5c0,0.1,0,0.3,0,0.4V35
    c0,2.8,2.2,5,5,5h20c2.8,0,5-2.2,5-5V13.8c0-0.1,0-0.3,0-0.4H35V9.6z M17.5,2.5c1.5,0,2.9,0.8,3.6,2.1h-7.3
    C14.6,3.3,16,2.5,17.5,2.5z M30,35c0,1.4-1.1,2.5-2.5,2.5h-20C6.1,37.5,5,36.4,5,35V13.8c0-0.1,0-0.3,0-0.4h10.5h3.9H30
    c0,0.1,0,0.3,0,0.4V35z M32.5,10.9h-1h-1.7h-6.9H19h-3h-3.9H5.2H3.5h-1V9.6c0-1.4,0.9-2.5,2-2.5h6.2h2.5h8.5h2.5h6.2
    c1.1,0,2,1.1,2,2.5V10.9z"/>
  <rect x="16.5" y="16.1" width="2.5" height="17.5"/>
  <rect x="23.1" y="16.1" width="2.5" height="17.5"/>
  <rect x="9.4" y="16.1" width="2.5" height="17.5"/>
</svg>
