<svg version="1.1" id="Layer_1" xmlns="http://www.w3.org/2000/svg" xmlns:xlink="http://www.w3.org/1999/xlink" x="0px" y="0px"
   viewBox="0 0 36 36" enable-background="new 0 0 36 36" xml:space="preserve">
  <g>
    <path d="M18,0C8.1,0,0,8.1,0,18c0,9.9,8.1,18,18,18s18-8.1,18-18C36,8.1,27.9,0,18,0z M20.5,28h-5.8v-4.8h5.8V28z M25.5,14
      c0,0.9-0.1,1.6-0.4,2.3c-0.3,0.6-0.7,1.2-1.2,1.7c-0.5,0.5-1.1,0.8-1.8,1.1c-0.7,0.3-1.5,0.5-2.3,0.7l-0.4,1.8h-3.6l-0.7-4.7
      l0.2-0.3c1.7-0.1,2.9-0.4,3.6-0.8c0.7-0.4,1-0.9,1-1.5v0c0-0.5-0.2-0.9-0.6-1.1c-0.4-0.3-0.9-0.4-1.6-0.4c-0.7,0-1.4,0.2-2.2,0.5
      c-0.7,0.3-1.5,0.8-2.2,1.4L10.5,11c0.9-0.9,2-1.6,3.2-2.1C15,8.3,16.4,8,18.1,8c1.1,0,2.1,0.1,3,0.4c0.9,0.3,1.7,0.7,2.3,1.2
      c0.6,0.5,1.2,1.1,1.5,1.9C25.3,12.2,25.5,13,25.5,14L25.5,14z"/>
  </g>
</svg>