<svg class="icon-chat-svg" version="1.1" id="icon" xmlns="http://www.w3.org/2000/svg" xmlns:xlink="http://www.w3.org/1999/xlink" x="0px" y="0px"
   viewBox="0 0 36.2 40" enable-background="new 0.1 0 36.2 40" xml:space="preserve">
<g>
  <path d="M29.2,0h-5.4c-3.5,0-6.4,2.5-6.9,5.9c0.4,0.2,0.8,0.5,1.1,0.7c0.4,0.3,0.8,0.7,1.2,1.1c0-0.2-0.1-0.5-0.1-0.8
    c0-2.5,2.1-4.6,4.7-4.6h5.4c2.6,0,4.7,2.1,4.7,4.6c0,1.1-0.4,2.2-1.2,3l-3.1,4.5v-2.9h-5.8c-1,0-2-0.3-2.7-0.9
    c0.2,0.5,0.4,1,0.5,1.6c0.1,0.4,0.1,0.9,0.1,1.3c0.7,0.2,1.4,0.3,2.1,0.3h3.4v1.8c0.4,0,0.8,0,1.2,0.1c0.5,0.1,1,0.2,1.5,0.3
    c0.4,0.1,0.8,0.3,1.1,0.4l3.5-5.1c1.1-1.3,1.7-2.9,1.7-4.5C36.2,3.1,33,0,29.2,0z"/>
  <path d="M17.5,16.7c0.5-0.3,1-0.5,1.6-0.6c0.2-0.7,0.3-1.4,0.3-2.1c0-0.7-0.1-1.3-0.3-1.9c-0.4-1.2-1.1-2.3-2-3.2
    C15.8,7.7,14.2,7,12.4,7H7C3.1,7,0,10.1,0,14c0,1.7,0.6,3.3,1.7,4.5L8.9,29v-8.1h3.4c0.4,0,0.7,0,1-0.1c0.3-0.5,0.6-1,0.9-1.4
    C15.2,18.3,16.2,17.4,17.5,16.7z M12.4,18.6H6.6v2.9l-3-4.4L3.5,17c-0.8-0.8-1.2-1.9-1.2-3c0-2.5,2.1-4.6,4.7-4.6h5.4
    C15,9.4,17,11.4,17,14C17,16.5,15,18.6,12.4,18.6z"/>
  <path d="M29.6,18.5c-0.4-0.1-0.8-0.3-1.2-0.3c0,0,0,0,0,0C28,18.1,27.6,18,27.2,18c0,0-0.1,0-0.1,0h-5.4c-0.4,0-0.7,0-1,0.1
    c-2.7,0.4-4.8,2.3-5.6,4.7c-0.2,0.7-0.3,1.4-0.3,2.1c0,3.8,3.1,6.9,7,6.9h3.4V40l7.2-10.5c1.1-1.3,1.7-2.9,1.7-4.5
    C34.1,22,32.3,19.5,29.6,18.5z M27.5,32.5v-2.9h-5.8c-2.6,0-4.7-2.1-4.7-4.6s2.1-4.6,4.7-4.6h5.4c0,0,0.1,0,0.1,0
    c0.4,0,0.7,0.1,1,0.1c2,0.5,3.5,2.3,3.5,4.4c0,1.1-0.4,2.2-1.2,3L27.5,32.5z"/>
</g>
</svg>
