<svg version="1.1" id="icon" class="filetype-xls" xmlns="http://www.w3.org/2000/svg" xmlns:xlink="http://www.w3.org/1999/xlink" x="0px" y="0px"
	 viewBox="0 0 42.5 50" enable-background="new 0 0 42.5 50" xml:space="preserve">
	<g>
		<path fill="#AAB4C4" d="M42.5,50H0V0h21.6c2,0,3.6,0.6,4.7,1.8C28.1,3.6,28,6.1,28,6.2l0,9.1h8.3c1.9,0,3.4,0.6,4.5,1.8
			c1.9,2.1,1.7,5.3,1.6,5.8V50z M2.4,47.6h37.7l0-24.8c0,0,0.3-2.6-1-4c-0.6-0.7-1.5-1-2.7-1H25.6V6.2c0-0.1,0-1.7-1-2.8
			c-0.7-0.7-1.7-1-3-1H2.4V47.6z"/>
	</g>
	<g>

			<rect x="22.1" y="8.9" transform="matrix(0.6864 0.7272 -0.7272 0.6864 17.5642 -20.5126)" fill="#AAB4C4" width="20.9" height="2.4"/>
	</g>
	<g>
		<rect x="6.7" y="11.6" fill="#A1C269" width="14.3" height="2.4"/>
	</g>
	<g opacity="0.4">
		<polyline fill-rule="evenodd" clip-rule="evenodd" fill="#AAB4C4" points="26.8,4.5 26.8,16.5 38.2,16.5 	"/>
	</g>
	<path fill="#A1C269" d="M35.1,22.1h-2.4v2.5H15.1v-4.1H21v-2.4H6.7v1.2h0v19.6h0v1.2h28.4v-1.2h0V22.1z M15.1,27h17.6v4.1H15.1V27z
		 M12.7,37.7H9.1v-4.1h3.6V37.7z M12.7,31.2H9.1V27h3.6V31.2z M12.7,24.6H9.1v-4.1h3.6V24.6z M15.1,33.5h17.6v4.1H15.1V33.5z"/>
</svg>