<svg version="1.1" id="icon" xmlns="http://www.w3.org/2000/svg" xmlns:xlink="http://www.w3.org/1999/xlink" x="0px" y="0px"
	 viewBox="0 0 42.5 50" enable-background="new 0 0 42.5 50" xml:space="preserve">
	<g>
		<g>
			<path fill="#AAB4C4" d="M42.5,50H0V0h21.6c2,0,3.6,0.6,4.7,1.8C28.1,3.6,28,6.1,28,6.2l0,9.1h8.3c1.9,0,3.4,0.6,4.5,1.8
				c1.9,2.1,1.7,5.3,1.6,5.8V50z M2.4,47.6h37.7l0-24.8c0,0,0.3-2.6-1-4c-0.6-0.7-1.5-1-2.7-1H25.6V6.2c0-0.1,0-1.7-1-2.8
				c-0.7-0.7-1.7-1-3-1H2.4V47.6z"/>
		</g>
		<g>
				<rect x="22.1" y="8.9" transform="matrix(0.6864 0.7272 -0.7272 0.6864 17.5644 -20.5127)" fill="#AAB4C4" width="20.9" height="2.4"/>
		</g>
		<g opacity="0.4">
			<polyline fill-rule="evenodd" clip-rule="evenodd" fill="#AAB4C4" points="26.8,4.5 26.8,16.5 38.2,16.5 		"/>
		</g>
		<g>
			<path fill="#F07779" d="M11.6,40.4c-1.1,0-1.8-0.7-2.1-1.3c-0.3-0.5-0.9-2,0.9-3.8c0.7-0.8,2.1-2.1,5.6-3.3c0.4-0.9,0.9-1.9,1.4-3
				c0.5-1.2,1-2.2,1.3-3.1c-1.3-2.2-1.6-4-1.6-5.9c0.1-2.2,1.6-3,2.6-3c0,0,0,0,0,0l0.1,0c0.1,0,2.4,0.2,2.5,3.5
				c0,1.2-0.2,2.6-1.1,5.2c0.7,1,1.6,2.1,2.8,3.5c0.4,0.4,0.8,0.8,1.1,1.2c3.8-0.1,5.6,0.7,6.3,1.1c1.6,1,1.4,2.5,1.2,3.2
				c-0.3,0.7-1.4,2-3.7,1.4c-1.2-0.3-2.1-0.8-4.7-3.5c-1.1,0.1-2.3,0.3-3.8,0.5c-1.1,0.2-2.1,0.5-2.9,0.7c-1.9,3.8-3.5,5.9-4.8,6.5
				C12.3,40.3,11.9,40.4,11.6,40.4z M14.4,34.9c-1.3,0.7-2,1.4-2.4,1.8c-0.6,0.7-0.7,1.1-0.6,1.2l0.2,0.2l-0.1,0
				c0.1,0.1,0.1,0.2,0.4,0.1C12.2,38,13.1,37.1,14.4,34.9z M27.2,32.4c1.2,1.1,1.7,1.3,2.3,1.5c0.7,0.2,1,0,1.1-0.1
				c0.1-0.3-0.2-0.5-0.3-0.6C30,33,29.1,32.5,27.2,32.4z M20.2,27.8c-0.2,0.6-0.5,1.2-0.8,1.9c-0.2,0.5-0.4,0.9-0.6,1.3
				c0.4-0.1,0.8-0.2,1.3-0.3c0.8-0.2,1.6-0.3,2.4-0.4C21.5,29.5,20.8,28.6,20.2,27.8z M19.6,19c-0.2,0.1-0.3,0.4-0.4,0.9
				c0,1,0,1.9,0.4,3.1c0.4-1.3,0.4-2,0.4-2.5C20.1,19.5,19.8,19.1,19.6,19z"/>
		</g>
	</g>
</svg>