<svg version="1.1" xmlns="http://www.w3.org/2000/svg" xmlns:xlink="http://www.w3.org/1999/xlink" x="0px" y="0px"
   viewBox="0 0 40 40" enable-background="new 0 0 40 40" xml:space="preserve">
<g>
  <g>
    <path d="M40,23.2L36.2,6.1l-2.4,0.5l3.3,14.8H2.9L6.2,6.7L3.8,6.1L0,22.9l0,1h0v16h40v-8.7L40,23.2L40,23.2L40,23.2z M37.5,37.5
      h-35v-6.2V24v0h35v7.4V37.5z"/>
    <polygon points="18.8,5.1 18.8,20.6 21.2,20.6 21.2,5.1 28.1,12.6 30,10.9 20,0 10,10.9 11.9,12.6     "/>
    <path d="M21.8,26.6h-3.6c-1.1,0-2,0.9-2,1.9c0,1.1,0.9,1.9,2,1.9h3.6c1.1,0,2-0.9,2-1.9C23.8,27.5,22.9,26.6,21.8,26.6z"/>
  </g>
</g>
</svg>
