<svg version="1.1" xmlns="http://www.w3.org/2000/svg" xmlns:xlink="http://www.w3.org/1999/xlink" x="0px" y="0px"
   viewBox="0 0 24 40" enable-background="new 0 0 24 40" xml:space="preserve">
<path d="M9.378,20L22.614,6.919c1.711-1.69,1.837-4.307,0.282-5.844c-1.555-1.537-4.203-1.412-5.913,0.278L1.355,16.798
  c-0.737,0.729-1.161,1.63-1.302,2.542c-0.012,0.07-0.022,0.139-0.03,0.209C0.007,19.7-0.001,19.85,0,20
  c-0.001,0.15,0.006,0.3,0.022,0.451c0.008,0.07,0.018,0.139,0.03,0.209c0.141,0.912,0.565,1.813,1.302,2.542l15.628,15.444
  c1.711,1.691,4.358,1.815,5.913,0.278c1.555-1.537,1.429-4.153-0.282-5.844L9.378,20z"/>
</svg>