<svg version="1.1" xmlns="http://www.w3.org/2000/svg" xmlns:xlink="http://www.w3.org/1999/xlink" x="0px" y="0px"
	 viewBox="0 0 130 131" enable-background="new 0 0 130 131" xml:space="preserve">
<g>
	<path d="M121.301,84.454C126.803,76.178,130,66.606,130,56.367C130,25.235,100.898,0,65,0S0,25.235,0,56.367
		s29.102,56.367,65,56.367c11.358,0,22.025-2.539,31.315-6.978C105.947,117.874,130,130.001,130,130.001
		S112.062,115.956,121.301,84.454z M92.372,56.529C91.316,70.75,79.477,81.968,64.993,81.968c-14.66,0-26.604-11.494-27.405-25.961
		c-0.067-0.529-0.102-1.045-0.078-1.536c0-14.732,11.588-26.722,26.136-27.43c0.461-0.054,0.914-0.086,1.347-0.068
		c15.178,0,27.483,12.311,27.483,27.498C92.527,55.121,92.486,55.812,92.372,56.529z"/>
	<path d="M64.993,36.139c-10.103,0-18.322,8.224-18.322,18.332c0,2.368,0.466,4.626,1.287,6.706l26.215-22.545
		C71.47,37.056,68.34,36.139,64.993,36.139z"/>
	<path d="M55.813,70.31c2.703,1.575,5.833,2.492,9.18,2.492c10.103,0,18.322-8.224,18.322-18.332c0-2.369-0.466-4.627-1.287-6.707
		L55.813,70.31z"/>
</g>
</svg>
