<svg version="1.1" class="pulse" id="Layer_1" xmlns="http://www.w3.org/2000/svg" xmlns:xlink="http://www.w3.org/1999/xlink" x="0px" y="0px"
   viewBox="0 0 50 50" enable-background="new 0 0 50 50" xml:space="preserve">
<g>
  <circle cx="25" cy="25" r="4.8"/>
</g>
<g opacity="0.4">
  <g>
    <path d="M25,40.4c-8.5,0-15.4-6.9-15.4-15.4c0-8.5,6.9-15.4,15.4-15.4S40.4,16.5,40.4,25C40.4,33.5,33.5,40.4,25,40.4z M25,11.5
      c-7.4,0-13.5,6-13.5,13.5c0,7.4,6,13.5,13.5,13.5s13.5-6,13.5-13.5C38.5,17.6,32.4,11.5,25,11.5z"/>
  </g>
</g>
<g opacity="0.1">
  <g>
    <path d="M25,50C11.2,50,0,38.8,0,25S11.2,0,25,0c13.8,0,25,11.2,25,25S38.8,50,25,50z M25,1.9C12.3,1.9,1.9,12.3,1.9,25
      c0,12.7,10.4,23.1,23.1,23.1S48.1,37.7,48.1,25C48.1,12.3,37.7,1.9,25,1.9z"/>
  </g>
</g>
</svg>
