<svg version="1.1" id="Layer_1" xmlns="http://www.w3.org/2000/svg" xmlns:xlink="http://www.w3.org/1999/xlink" x="0px" y="0px"
   viewBox="0 0 40 40" enable-background="new 0 0 40 40" xml:space="preserve">
<g>
  <path d="M20.2,37.5h-0.4c-9.5,0-17.3-7.8-17.3-17.3v-0.4c0-3.3,1-6.5,2.6-9.1L3.3,8.9C1.2,12,0,15.8,0,19.8v0.4
    C0,31.1,8.9,40,19.8,40h0.4c4,0,7.8-1.2,10.9-3.3l-1.8-1.8C26.7,36.5,23.5,37.5,20.2,37.5z"/>
  <path d="M20.2,0h-0.4c-4,0-7.8,1.2-10.9,3.3l1.8,1.8c2.7-1.7,5.8-2.6,9.1-2.6h0.4c9.5,0,17.3,7.8,17.3,17.3v0.4
    c0,3.3-1,6.5-2.6,9.1l1.8,1.8C38.8,28,40,24.2,40,20.2v-0.4C40,8.9,31.1,0,20.2,0z"/>
  <polygon points="28,15.5 26.2,13.7 22.8,17.2 23.6,18.1 24.5,19  "/>
  <polygon points="18.9,24.5 19,24.5 18.1,23.6 17.2,22.8 17.2,22.8 13.8,19.4 12,21.1 15.4,24.5 17.2,26.3  "/>
  <polygon points="33.3,31.5 22.6,20.9 21.7,20 20.9,19.1 8.5,6.7 6.7,5 2.1,0.4 0.4,2.1 5,6.7 6.7,8.5 19.1,20.9 20,21.7 20.9,22.6 
    31.5,33.3 33.3,35 37.9,39.6 39.6,37.9 35,33.3   "/>
</g>
</svg>
