<svg class="icon-tick-circle" version="1.1" xmlns="http://www.w3.org/2000/svg" xmlns:xlink="http://www.w3.org/1999/xlink" x="0px" y="0px"
   viewBox="0 0 40 40" enable-background="new 0 0 40 40" xml:space="preserve">
  <g>
    <path d="M20.2,0h-0.4C8.9,0,0,8.9,0,19.8v0.4C0,31.1,8.9,40,19.8,40h0.4C31.1,40,40,31.1,40,20.2v-0.4C40,8.9,31.1,0,20.2,0z
       M37.5,20.2c0,9.5-7.8,17.3-17.3,17.3h-0.4c-9.5,0-17.3-7.8-17.3-17.3v-0.4c0-9.5,7.8-17.3,17.3-17.3h0.4c9.5,0,17.3,7.8,17.3,17.3
      V20.2z"/>
    <polygon points="17.2,22.8 13.8,19.4 12,21.1 17.2,26.3 18.9,24.5 28,15.5 26.2,13.7  "/>
  </g>
</svg>

