<svg version="1.1" id="icon-temperatur-svg" xmlns="http://www.w3.org/2000/svg" xmlns:xlink="http://www.w3.org/1999/xlink" x="0px" y="0px"
   viewBox="0 0 10.2 31" enable-background="new 0 0 10.2 31" xml:space="preserve">
<g>
  <path d="M5.1,31C2.3,31,0,28.7,0,25.8c0-1.8,0.9-3.5,2.5-4.4V2.6C2.5,1.1,3.6,0,5,0h0.2c1.4,0,2.6,1.1,2.6,2.6v18.9
    c1.5,0.9,2.5,2.6,2.5,4.4C10.2,28.7,7.9,31,5.1,31z M5,1.9c-0.4,0-0.7,0.3-0.7,0.7v20.1l-0.6,0.3c-1.2,0.5-1.9,1.7-1.9,3
    c0,1.8,1.4,3.3,3.2,3.3s3.2-1.5,3.2-3.3c0-1.3-0.7-2.4-1.9-3l-0.6-0.3V2.6c0-0.4-0.3-0.7-0.7-0.7H5z"/>
</g>
</svg>
