<svg version="1.1" id="Layer_1" xmlns="http://www.w3.org/2000/svg" xmlns:xlink="http://www.w3.org/1999/xlink" x="0px" y="0px"
   viewBox="0 0 40 40" enable-background="new 0 0 40 40" xml:space="preserve">
<g>
  <path d="M29.8,24.5c0.6-1.4,1-2.9,1-4.5C30.8,14,26,9.2,20,9.2c-1.6,0-3.1,0.4-4.5,1l1.9,1.9c0.8-0.3,1.7-0.4,2.6-0.4
    c4.6,0,8.3,3.7,8.3,8.3c0,0.9-0.2,1.8-0.4,2.6L29.8,24.5z"/>
  <path d="M10.2,15.5c-0.6,1.4-1,2.9-1,4.5c0,6,4.8,10.8,10.8,10.8c1.6,0,3.1-0.4,4.5-1l-1.9-1.9c-0.8,0.3-1.7,0.4-2.6,0.4
    c-4.6,0-8.3-3.7-8.3-8.3c0-0.9,0.2-1.8,0.4-2.6L10.2,15.5z"/>
  <path d="M20.2,0h-0.4c-4.1,0-7.9,1.3-11.1,3.4l1.8,1.8c2.7-1.7,5.9-2.7,9.3-2.7h0.4c9.5,0,17.3,7.8,17.3,17.3v0.4
    c0,3.4-1,6.6-2.7,9.3l1.8,1.8c2.2-3.2,3.4-7,3.4-11.1v-0.4C40,8.9,31.1,0,20.2,0z"/>
  <path d="M20.2,37.5h-0.4c-9.5,0-17.3-7.8-17.3-17.3v-0.4c0-3.4,1-6.6,2.7-9.3L3.4,8.7C1.3,11.9,0,15.7,0,19.8v0.4
    C0,31.1,8.9,40,19.8,40h0.4c4.1,0,7.9-1.3,11.1-3.4l-1.8-1.8C26.8,36.5,23.6,37.5,20.2,37.5z"/>
  <polygon points="33.3,31.5 28.5,26.7 26.7,24.9 22,20.2 21.3,19.5 20.5,18.7 19.8,18 15.1,13.3 13.3,11.5 8.5,6.7 6.7,5 2.1,0.4 
    0.4,2.1 5,6.7 6.7,8.5 11.5,13.3 13.3,15.1 18,19.8 18.7,20.5 19.5,21.3 20.2,22 24.9,26.7 26.7,28.5 31.5,33.3 33.3,35 37.9,39.6 
    39.6,37.9 35,33.3   "/>
</g>
</svg>
