<svg version="1.1" xmlns="http://www.w3.org/2000/svg" xmlns:xlink="http://www.w3.org/1999/xlink" x="0px" y="0px"
	 viewBox="0 0 12 20" enable-background="new 0 0 12 20" xml:space="preserve">
<path d="M7.303,10L0.685,3.46C-0.17,2.614-0.233,1.306,0.544,0.538c0.778-0.768,2.101-0.706,2.957,0.139l7.814,7.722
	c0.369,0.364,0.581,0.815,0.651,1.271c0.006,0.035,0.011,0.069,0.015,0.105c0.008,0.076,0.012,0.15,0.011,0.225
	c0,0.075-0.003,0.15-0.011,0.225c-0.004,0.035-0.009,0.07-0.015,0.105c-0.07,0.456-0.282,0.907-0.651,1.271l-7.814,7.722
	c-0.855,0.845-2.179,0.908-2.957,0.139c-0.778-0.768-0.715-2.077,0.141-2.922L7.303,10z"/>
</svg>
