<svg version="1.1" id="icon-discuss" xmlns="http://www.w3.org/2000/svg" xmlns:xlink="http://www.w3.org/1999/xlink" x="0px" y="0px"
   viewBox="0 0 30 30" enable-background="new 0 0 30 30" xml:space="preserve">
<g>
  <g>
    <g>
      <path d="M15.6,25.1v-6.7h-2.9c-3.2,0-5.7-2.6-5.7-5.7C7,9.6,9.6,7,12.8,7h4.4c3.2,0,5.7,2.6,5.7,5.7c0,1.4-0.5,2.7-1.4,3.7
        L15.6,25.1z M12.8,8.9c-2.1,0-3.9,1.7-3.9,3.8s1.7,3.8,3.9,3.8h4.7V19l2.6-3.8c0.6-0.7,1-1.6,1-2.5c0-2.1-1.7-3.8-3.9-3.8H12.8z"
        />
    </g>
  </g>
  <g>
    <path d="M15.1,30h-0.3C6.7,30,0,23.3,0,15.1v-0.3C0,6.7,6.7,0,14.9,0h0.3C23.3,0,30,6.7,30,14.9v0.3C30,23.3,23.3,30,15.1,30z
       M14.9,1.9c-7.2,0-13,5.8-13,13v0.3c0,7.2,5.8,13,13,13h0.3c7.2,0,13-5.8,13-13v-0.3c0-7.2-5.8-13-13-13H14.9z"/>
  </g>
</g>
</svg>
