<svg version="1.1" id="Layer_1" xmlns="http://www.w3.org/2000/svg" xmlns:xlink="http://www.w3.org/1999/xlink" x="0px" y="0px"
   viewBox="0 0 40 40" enable-background="new 0 0 40 40" xml:space="preserve">
<g>
  <path d="M20.2,0h-0.4c-4,0-7.8,1.2-10.9,3.3l1.8,1.8c2.4-1.5,5.2-2.4,8.1-2.6v6.2h2.5V2.6c8.7,0.6,15.6,7.5,16.1,16.2h-6.1v2.5h6.1
    c-0.2,2.9-1.1,5.7-2.6,8.1l1.8,1.8C38.8,28,40,24.2,40,20.2v-0.4C40,8.9,31.1,0,20.2,0z"/>
  <path d="M21.3,37.4v-6.2h-2.5v6.2C10.1,37,3.1,30,2.6,21.2h6.3v-2.5H2.6c0.2-2.9,1.1-5.7,2.6-8.1L3.3,8.9C1.2,12,0,15.8,0,19.8v0.4
    C0,31.1,8.9,40,19.8,40h0.4c4,0,7.8-1.2,10.9-3.3l-1.8-1.8C27,36.3,24.3,37.2,21.3,37.4z"/>
  <polygon points="33.3,31.5 22,20.2 21.3,19.5 20.6,18.8 19.8,18.1 8.5,6.7 6.7,5 2.1,0.4 0.4,2.1 5,6.7 6.7,8.5 18,19.8 18.7,20.5 
    19.4,21.2 20.2,21.9 31.5,33.3 33.3,35 37.9,39.6 39.6,37.9 35,33.3   "/>
</g>
</svg>
