<svg version="1.1" id="Layer_1" xmlns="http://www.w3.org/2000/svg" xmlns:xlink="http://www.w3.org/1999/xlink" x="0px" y="0px"
   viewBox="0 0 30 30" enable-background="new 0 0 30 30" xml:space="preserve">
<g>
  <path d="M15.1,0h-0.3C6.7,0,0,6.7,0,14.9v0.3C0,23.3,6.7,30,14.9,30h0.3C23.3,30,30,23.3,30,15.1v-0.3C30,6.7,23.3,0,15.1,0z
     M28.1,15.1c0,7.2-5.8,13-13,13h-0.3c-7.2,0-13-5.8-13-13v-0.3c0-7.2,5.8-13,13-13h0.3c7.2,0,13,5.8,13,13V15.1z"/>
  <path d="M15,7.5c-0.5,0-1.3,6.4-1.3,7.3c0,0,0,0,0,0.1c0,0.3,0.1,0.6,0.2,0.8c0,0,0,0.1,0.1,0.1c0,0,0.1,0.1,0.1,0.1c0,0,0,0,0,0
    c0,0.1,0.1,0.1,0.2,0.2c0.6,0.6,5.7,4.6,6,4.3c0.3-0.3-3.1-4.7-4.1-5.9C16.2,13.1,15.4,7.5,15,7.5z"/>
</g>
</svg>
