<svg version="1.1" id="Layer_1" xmlns="http://www.w3.org/2000/svg" xmlns:xlink="http://www.w3.org/1999/xlink" x="0px" y="0px"
	 viewBox="0 0 30 30" enable-background="new 0 0 30 30" xml:space="preserve">
<path d="M15,0C6.7,0,0,6.7,0,15c0,8.3,6.7,15,15,15c8.3,0,15-6.7,15-15C30,6.7,23.3,0,15,0z M9.9,2.8
	C9.2,3.7,8.6,4.7,8.1,5.9C7.5,5.7,6.8,5.5,6.2,5.2C7.3,4.2,8.5,3.4,9.9,2.8z M4.9,6.6C5.7,7,6.6,7.3,7.5,7.6c-0.6,1.9-1,4.1-1.1,6.4
	H1.9C2,11.2,3.2,8.6,4.9,6.6z M1.9,15.9h4.6c0.1,2.3,0.4,4.5,1.1,6.4c-0.9,0.3-1.8,0.7-2.6,1.1C3.2,21.4,2,18.8,1.9,15.9z M6.2,24.8
	c0.6-0.3,1.3-0.5,1.9-0.7c0.5,1.2,1.1,2.2,1.8,3.1C8.5,26.6,7.3,25.8,6.2,24.8z M14.1,28.1c-1.7-0.5-3.1-2.1-4.2-4.5
	c1.4-0.3,2.8-0.5,4.2-0.6V28.1z M14.1,21.1c-1.6,0.1-3.3,0.3-4.9,0.7c-0.6-1.8-0.9-3.8-1-5.9h5.8V21.1z M14.1,14.1H8.2
	c0.1-2.1,0.4-4.2,1-5.9c1.6,0.4,3.2,0.6,4.9,0.7V14.1z M14.1,7.1C12.7,7,11.3,6.8,9.9,6.5c1.1-2.4,2.5-4.1,4.2-4.5V7.1z M28.1,14.1
	h-4.6c-0.1-2.3-0.4-4.5-1.1-6.4c0.9-0.3,1.8-0.7,2.6-1.1C26.8,8.6,28,11.2,28.1,14.1z M23.8,5.2c-0.6,0.3-1.3,0.5-1.9,0.7
	c-0.5-1.2-1.1-2.2-1.8-3.1C21.5,3.4,22.7,4.2,23.8,5.2z M15.9,1.9c1.7,0.5,3.1,2.1,4.2,4.5c-1.4,0.3-2.8,0.5-4.2,0.6V1.9z M15.9,8.9
	c1.6-0.1,3.3-0.3,4.9-0.7c0.6,1.8,0.9,3.8,1,5.9h-5.8V8.9z M15.9,15.9h5.8c-0.1,2.1-0.4,4.2-1,5.9c-1.6-0.4-3.2-0.6-4.9-0.7V15.9z
	 M15.9,28.1v-5.1c1.4,0.1,2.8,0.3,4.2,0.6C19.1,25.9,17.6,27.6,15.9,28.1z M20.1,27.2c0.7-0.9,1.3-1.9,1.8-3.1
	c0.6,0.2,1.3,0.5,1.9,0.7C22.7,25.8,21.5,26.6,20.1,27.2z M25.1,23.4c-0.8-0.4-1.7-0.8-2.6-1.1c0.6-1.9,1-4.1,1.1-6.4h4.6
	C28,18.8,26.8,21.4,25.1,23.4z"/>
</svg>
