<svg version="1.1" id="Layer_1" xmlns="http://www.w3.org/2000/svg" xmlns:xlink="http://www.w3.org/1999/xlink" x="0px" y="0px"
   viewBox="0 0 40 40" enable-background="new 0 0 40 40" xml:space="preserve">
<g>
  <g>
    <path d="M20.2,40h-0.4C8.9,40,0,31.1,0,20.2v-0.4C0,8.9,8.9,0,19.8,0h0.4C31.1,0,40,8.9,40,19.8v0.4C40,31.1,31.1,40,20.2,40z
       M19.8,2.5c-9.5,0-17.3,7.8-17.3,17.3v0.4c0,9.5,7.8,17.3,17.3,17.3h0.4c9.5,0,17.3-7.8,17.3-17.3v-0.4c0-9.5-7.8-17.3-17.3-17.3
      H19.8z"/>
  </g>
  <g>
    <rect x="11" y="18.8" width="18" height="2.5"/>
  </g>
</g>
</svg>
