<svg version="1.1" id="icon" xmlns="http://www.w3.org/2000/svg" xmlns:xlink="http://www.w3.org/1999/xlink" x="0px" y="0px"
	 viewBox="0 0 42.5 50" enable-background="new 0 0 42.5 50" xml:space="preserve">
	<path fill="none" d="M21.3,21.8c-2,0-3.7,1.7-3.7,3.7V28H25v-2.4C25,23.5,23.3,21.8,21.3,21.8z"/>
	<path fill="#606269" d="M17.5,28v-2.4c0-2,1.7-3.7,3.7-3.7c2,0,3.7,1.7,3.7,3.7V28h1.7c0.2,0,0.5,0.1,0.7,0.1v-2.6
		c0-3.4-2.7-6.1-6.1-6.1c-3.4,0-6.1,2.7-6.1,6.1v2.6c0.2-0.1,0.4-0.1,0.7-0.1H17.5z"/>
	<g>
		<path fill="#AAB4C4" d="M42.5,50H0V0h21.6c2,0,3.6,0.6,4.7,1.8C28.1,3.6,28,6.1,28,6.2l0,9.1h8.3c1.9,0,3.4,0.6,4.5,1.8
			c1.9,2.1,1.7,5.3,1.6,5.8V50z M2.4,47.6h37.7l0-24.8c0,0,0.3-2.6-1-4c-0.6-0.7-1.5-1-2.7-1H25.6V6.2c0-0.1,0-1.7-1-2.8
			c-0.7-0.7-1.7-1-3-1H2.4V47.6z"/>
	</g>
	<g>
			<rect x="22.1" y="8.9" transform="matrix(0.6864 0.7272 -0.7272 0.6864 17.5645 -20.5126)" fill="#AAB4C4" width="20.9" height="2.4"/>
	</g>
	<g opacity="0.4">
		<polyline fill-rule="evenodd" clip-rule="evenodd" fill="#AAB4C4" points="26.8,4.5 26.8,16.5 38.2,16.5 	"/>
	</g>
	<path fill="#F1BE55" d="M26.3,40.1H16.2c-2,0-3.6-1.6-3.6-3.6v-6.2c0-2,1.6-3.6,3.6-3.6h10.1c2,0,3.6,1.6,3.6,3.6v6.2
		C29.9,38.5,28.3,40.1,26.3,40.1z M16.2,29.2c-0.7,0-1.2,0.5-1.2,1.2v6.2c0,0.7,0.5,1.2,1.2,1.2h10.1c0.7,0,1.2-0.5,1.2-1.2v-6.2
		c0-0.7-0.5-1.2-1.2-1.2H16.2z"/>
</svg>
