<svg version="1.1" id="Layer_1" xmlns="http://www.w3.org/2000/svg" xmlns:xlink="http://www.w3.org/1999/xlink" x="0px" y="0px"
   viewBox="0 0 33.7 40" enable-background="new 0 0 33.7 40" xml:space="preserve">
<g>
  <polygon points="30,6.2 30,8.7 31.2,8.7 31.2,37.5 8.7,37.5 8.7,36.2 6.2,36.2 6.2,40 33.7,40 33.7,6.2  "/>
  <path d="M8.7,33.7h2.5h16.2V11.2V8.7V6.2V3.7V0H0v33.7h3.7h2.5H8.7z M2.5,2.5H25v1.2v2.5v2.5v2.5v20H11.2H8.7H6.2H3.7H2.5V2.5z"/>
  <rect x="5.6" y="12.9" width="16.2" height="2.5"/>
  <rect x="5.6" y="6.6" width="16.2" height="2.5"/>
  <path d="M6.8,28.3h0.1c1.1,0,1.9-0.9,1.9-1.9c0-0.1,0-0.1,0-0.2l1.8-1.8l4,3.7l5.6-5c0.1,0,0.1,0,0.2,0h0.1c1.1,0,1.9-0.9,1.9-1.9
    c0-1.1-0.9-1.9-2.1-1.9c-1.1,0-1.9,0.9-1.9,1.9c0,0,0,0.1,0,0.1l-3.9,3.4l-4.1-3.8L7,24.5c-0.1,0-0.1,0-0.2,0
    c-1.1,0-1.9,0.9-1.9,1.9C4.9,27.4,5.7,28.3,6.8,28.3z"/>
</g>
</svg>
