<svg version="1.1" xmlns="http://www.w3.org/2000/svg" xmlns:xlink="http://www.w3.org/1999/xlink" x="0px" y="0px"
   viewBox="0 0 50 50" enable-background="new 0 0 50 50" xml:space="preserve">
  <g>
    <g>
      <path d="M25,50C11.2,50,0,38.8,0,25C0,11.2,11.2,0,25,0c13.8,0,25,11.2,25,25C50,38.8,38.8,50,25,50z M25,1.9
        C12.3,1.9,1.9,12.3,1.9,25S12.3,48.1,25,48.1S48.1,37.7,48.1,25S37.7,1.9,25,1.9z"/>
    </g>
    <g>
      <g>
        <path d="M25,31.2c-2.9,0-5.2-2.4-5.2-5.2s2.3-5.2,5.2-5.2s5.2,2.4,5.2,5.2S27.9,31.2,25,31.2z M25,22.6c-1.8,0-3.3,1.5-3.3,3.3
          c0,1.8,1.5,3.3,3.3,3.3s3.3-1.5,3.3-3.3C28.3,24.1,26.8,22.6,25,22.6z"/>
      </g>
      <g>
        <path d="M36.9,36.7H13.2c-0.3,0-0.6,0-0.8-0.1c-0.8-0.2-1.5-0.8-1.8-1.6c-0.1-0.3-0.2-0.6-0.3-1c0-0.3-0.1-0.6-0.1-1V20.1
          c0-1.5,0.2-2.9,1.9-3.5c0,0,0.1,0,0.2-0.1l0.1,0c0.1,0,0.2-0.1,0.3-0.1c0.5-0.1,4.8-0.7,7.3-0.9c0.5-1,1.4-2.3,2.4-2.3h5
          c1.1,0,1.9,1.3,2.6,2.5c1.7,0.2,6.9,0.6,6.9,0.6c0,0,0,0,0,0c1.5,0,2.9,1.3,2.9,3v14.3C39.8,35.4,38.5,36.7,36.9,36.7z
           M12.8,18.4c-0.4,0.2-0.7,0.2-0.7,1.7V33c0,0.3,0,0.5,0.1,0.7c0,0.2,0.1,0.3,0.1,0.4c0.1,0.3,0.3,0.5,0.6,0.5
          c0.2,0,0.2,0.1,0.3,0.1h23.7c0.6,0,1-0.5,1-1V19.4c0-0.6-0.5-1-1-1c-0.1,0-7.4-0.7-7.6-0.7l-0.6-0.1l-0.2-0.5
          c-0.4-0.8-0.9-1.6-1.2-1.9h-4.8c-0.3,0.2-0.7,1-1,1.6l-0.2,0.5l-0.6,0c-2.3,0.2-7.2,0.8-7.6,0.9c-0.1,0-0.1,0-0.2,0L12.8,18.4z"
          />
      </g>
    </g>
  </g>
</svg>
