<svg version="1.1" xmlns="http://www.w3.org/2000/svg" xmlns:xlink="http://www.w3.org/1999/xlink" x="0px" y="0px"
	 viewBox="0 0 131 131" enable-background="new 0 0 131 131" xml:space="preserve">
<g>
	<path d="M121.301,84.454C126.803,76.178,130,66.606,130,56.367C130,25.235,100.898,0,65,0C29.102,0,0,25.235,0,56.367
		s29.102,56.367,65,56.367c11.357,0,22.024-2.539,31.315-6.978C105.947,117.874,130,130.001,130,130.001
		S112.062,115.956,121.301,84.454z M58.946,82.79L32,56.595l8.409-8.182l14.124,11.714c0,0,20.293-20.774,43.467-32.915
		C98,27.211,60,67.22,58.946,82.79z"/>
</g>
</svg>
