<svg version="1.1" id="Layer_1" xmlns="http://www.w3.org/2000/svg" xmlns:xlink="http://www.w3.org/1999/xlink" x="0px" y="0px"
   viewBox="0 0 40 40" enable-background="new 0 0 40 40" xml:space="preserve">
<g>
  <path d="M34.2,6L34,5.8C26.3-1.9,13.7-1.9,6,5.8L5.8,6c-7.7,7.7-7.7,20.2,0,27.9L6,34.2c7.7,7.7,20.2,7.7,27.9,0l0.3-0.3
    C41.9,26.3,41.9,13.7,34.2,6z M32.2,32.5c-6.7,6.7-17.7,6.7-24.4,0l-0.3-0.3c-6.7-6.7-6.7-17.7,0-24.4l0.3-0.3
    c6.7-6.7,17.7-6.7,24.4,0l0.3,0.3c6.7,6.7,6.7,17.7,0,24.4L32.2,32.5z"/>
  <polygon points="27.4,14.7 25.6,12.9 20.2,18.4 14.7,12.9 12.9,14.7 18.4,20.2 12.9,25.6 14.7,27.4 20.2,21.9 25.6,27.4 27.4,25.6 
    21.9,20.2   "/>
</g>
</svg>
