<svg version="1.1" id="Layer_1" xmlns="http://www.w3.org/2000/svg" xmlns:xlink="http://www.w3.org/1999/xlink" x="0px" y="0px"
   viewBox="0 0 40 40" enable-background="new 0 0 40 40" xml:space="preserve">
<g>
  <path d="M8.1,30.1c-2.3,2.3-4.5,4.5-6.2,6.2c-0.2,0.2-0.5,0.3-0.6,0.6c-0.1,0.3-0.2,0.5-0.3,0.8c-0.2,0.5-0.4,0.9-0.5,1.2
    C0.1,39.6,0,40,0,40s0.4-0.1,1.1-0.4c0.3-0.1,0.8-0.3,1.2-0.5c0.2-0.1,0.5-0.2,0.8-0.3c0.3-0.1,0.4-0.4,0.6-0.6
    c1.7-1.7,3.9-3.9,6.2-6.2c1.1-1.1,2.2-2.2,3.2-3.2l-1.8-1.8C10.3,27.9,9.2,29,8.1,30.1z"/>
  <path d="M38.2,15.6l1.8-1.8l-2.9-2.9l-8-8L26.2,0l-1.8,1.8l2.9,2.9l-6.9,6.9c-2.1-1.1-4.7-1.1-6.4,0.2l-5.3,3.9
    C8,16.2,7.5,17.1,7.6,18c0,0.5,0.1,1.6,0.9,2.3l11.1,11.1c0.8,0.8,1.8,0.9,2.4,0.9H22c0.9,0,1.8-0.5,2.3-1.2l3.9-5.3
    c1.3-1.8,1.4-4.3,0.2-6.4l6.9-6.9L38.2,15.6z M25,19.3l0.7,0.9c1.1,1.4,1.2,3.1,0.4,4.2l-3.9,5.3c0,0.1-0.2,0.1-0.2,0.1
    c-0.3,0-0.5-0.1-0.6-0.1L10.3,18.6c-0.1-0.1-0.1-0.3-0.2-0.6c0-0.1,0.1-0.2,0.1-0.2l5.3-3.9c0.5-0.3,1-0.5,1.7-0.5
    c0.9,0,1.8,0.3,2.5,0.9l0.9,0.7l8.4-8.4l4.3,4.3L25,19.3z"/>
</g>
</svg>
