<svg version="1.1" id="Layer_1" xmlns="http://www.w3.org/2000/svg" xmlns:xlink="http://www.w3.org/1999/xlink" x="0px" y="0px"
   viewBox="0 0 30 30" enable-background="new 0 0 30 30" xml:space="preserve">
<g>
  <path d="M15.1,0h-0.3C6.7,0,0,6.7,0,14.9v0.3C0,23.3,6.7,30,14.9,30h0.3C23.3,30,30,23.3,30,15.1v-0.3C30,6.7,23.3,0,15.1,0z
     M28.1,15.1c0,7.2-5.8,13-13,13h-0.3c-7.2,0-13-5.8-13-13v-0.3c0-7.2,5.8-13,13-13h0.3c7.2,0,13,5.8,13,13V15.1z"/>
  <path d="M14.8,11.4h-3.5l3.2-2.8l-1.2-1.4l-5.8,5.2l5.8,5.2l1.2-1.4l-3.2-2.8h3.5c3,0,5.5,2.4,5.5,5.4v2.5h1.9v-2.5
    C22.1,14.7,18.8,11.4,14.8,11.4z"/>
</g>
</svg>
