<svg version="1.1" id="qa-icon-target" xmlns="http://www.w3.org/2000/svg" xmlns:xlink="http://www.w3.org/1999/xlink" x="0px" y="0px"
   viewBox="0 0 40 40" enable-background="new 0 0 40 40" xml:space="preserve">
<g>
  <path d="M20.2,0h-0.4C8.9,0,0,8.9,0,19.8v0.4C0,31.1,8.9,40,19.8,40h0.4C31.1,40,40,31.1,40,20.2v-0.4C40,8.9,31.1,0,20.2,0z
     M21.3,37.4v-6.2h-2.5v6.2C10.1,37,3.1,30,2.6,21.3h6.3v-2.5H2.6C3.1,10,10.1,3,18.8,2.5v6.2h2.5V2.6c8.7,0.6,15.6,7.5,16.1,16.2
    h-6.1v2.5h6.1C36.9,29.9,30,36.9,21.3,37.4z"/>
  <path d="M19.9,18.1c-1.1,0-1.9,0.9-1.9,1.9s0.9,1.9,1.9,1.9h0.1c1.1,0,1.9-0.9,1.9-1.9S21.1,18.1,19.9,18.1z"/>
</g>
</svg>
