<svg version="1.1" id="icon-activity-svg" xmlns="http://www.w3.org/2000/svg" xmlns:xlink="http://www.w3.org/1999/xlink" x="0px" y="0px"
   viewBox="0 0 39.7 40" enable-background="new 0 0 39.7 40" xml:space="preserve">
<g>
  <path d="M32.3,20l-8.5,12.4v-8.8H13.2c-6,0-10.8-4.8-10.8-10.7c0-5.9,4.9-10.7,10.8-10.7h9.6C23.4,1.5,24.1,0.7,25,0
    c-0.3,0-0.5,0-0.8,0H13.2C5.9,0,0,5.8,0,13c0,7.2,5.9,13,13.2,13h8.3v14l12.7-18.5c1.1-1.2,1.9-2.6,2.4-4c-1,0.6-2.1,1-3.3,1.3
    C33,19.2,32.7,19.6,32.3,20z"/>
  <g>
    <path d="M31.2,0c-1.1,0-2.1,0.2-3.1,0.6c-1.1,0.4-2,1-2.8,1.8c-1.6,1.5-2.6,3.7-2.6,6.1c0,4.7,3.8,8.5,8.5,8.5
      c1.2,0,2.3-0.2,3.3-0.7c1.1-0.5,2-1.1,2.8-1.9c1.5-1.5,2.4-3.6,2.4-5.9C39.7,3.8,35.9,0,31.2,0z M37.2,10.9
      C36.8,12.1,36,13,35,13.7c-1.1,0.8-2.4,1.3-3.8,1.3c-3.6,0-6.5-2.9-6.5-6.5c0-2.3,1.3-4.4,3.1-5.5c1-0.6,2.1-1,3.4-1c0,0,0,0,0,0
      c3.6,0,6.5,2.9,6.5,6.5C37.7,9.4,37.5,10.2,37.2,10.9z"/>
    <path d="M31.2,2.7c-0.4,0-1.2,4.2-1.3,5.5c-0.1,0.3,0,0.5,0.1,0.8c0,0.1,0.1,0.2,0.2,0.3c0,0,0,0,0,0.1c0,0,0,0,0,0
      c0,0.1,0.1,0.1,0.2,0.1c0.9,0.8,4.6,3.3,4.9,3c0.3-0.3-1.8-3.3-2.7-4.6C32.3,6.4,31.6,2.7,31.2,2.7z"/>
  </g>
</g>
</svg>
