<svg version="1.1" xmlns="http://www.w3.org/2000/svg" xmlns:xlink="http://www.w3.org/1999/xlink" x="0px" y="0px"
	 viewBox="0 0 32 23" enable-background="new 0 0 32 23" xml:space="preserve">
<path d="M31.683,8.016c0.65-1.236,0.274-2.85-0.872-3.55c-1.173-0.726-2.645-0.295-3.295,0.941c-0.598,1.102-0.348,2.53,0.525,3.309
	c-1.997,1.829-8.109,7.425-8.158,7.425L16.264,5.193c1.273-0.081,2.246-1.21,2.246-2.582C18.511,1.184,17.438,0,16.065,0H15.94
	c-1.346,0-2.445,1.184-2.445,2.61c0,1.372,0.972,2.502,2.245,2.582l-3.617,10.949c-0.025,0-6.137-5.596-8.183-7.425
	c0.923-0.779,1.173-2.207,0.573-3.309C3.84,4.171,2.369,3.74,1.196,4.467C0.073,5.165-0.351,6.78,0.323,8.016
	C0.972,9.2,2.344,9.658,3.516,9.039L5.761,23h20.508l2.246-13.961C29.663,9.658,31.034,9.2,31.683,8.016z"/>
</svg>
