<svg version="1.1" id="Layer_1" xmlns="http://www.w3.org/2000/svg" xmlns:xlink="http://www.w3.org/1999/xlink" x="0px" y="0px"
   viewBox="0 0 30 40" enable-background="new 0 0 30 40" xml:space="preserve">
<g>
  <g>
    <path d="M15,17c-4.6,0-8.4-3.8-8.4-8.5C6.6,3.8,10.4,0,15,0c4.6,0,8.4,3.8,8.4,8.5C23.4,13.2,19.6,17,15,17z M15,2.5
      c-3.3,0-5.9,2.7-5.9,6c0,3.3,2.7,6,5.9,6s5.9-2.7,5.9-6C20.9,5.2,18.3,2.5,15,2.5z"/>
  </g>
  <g>
    <path d="M26.1,40H3.9c-1.3,0-2.3-0.8-2.8-1.3c-0.8-0.8-1.2-1.9-1-3l1.4-9.2c0.6-3.7,4.2-6.6,8.5-6.6H20c4.3,0,8,2.8,8.5,6.6
      l1.4,9.2c0.2,1.1-0.2,2.3-1,3C28.5,39.2,27.4,40,26.1,40z M10,22.4c-3.1,0-5.7,1.9-6.1,4.4l-1.4,9.2c0,0.3,0.1,0.7,0.3,0.9
      c0.4,0.4,0.8,0.6,1.1,0.6h22.2c0.3,0,0.7-0.2,1.1-0.6c0.2-0.2,0.3-0.6,0.3-0.9l-1.4-9.2c-0.4-2.5-3-4.4-6.1-4.4H10z"/>
  </g>
</g>
</svg>
