<svg version="1.1" xmlns="http://www.w3.org/2000/svg" xmlns:xlink="http://www.w3.org/1999/xlink" x="0px" y="0px"
   viewBox="0 0 30 27.3" enable-background="new 0 0 30 27.3" xml:space="preserve">
  <g>
    <path d="M28.1,1.9C26.9,0.7,25.2,0,23.5,0c0,0,0,0,0,0c-1.8,0-3.4,0.7-4.6,1.9l-3,3l0,0l-2.9,2.9l-7.6,7.6l0,0l-4,4
      c-1.8,1.8-1.8,4.8,0,6.6c0.9,0.9,2,1.4,3.3,1.4S7,26.9,7.9,26l4.8-4.8l0,0l8.8-8.8l0.8-0.8l0,0c1-1.1,1-2.8,0-3.9
      c-1.1-1.1-2.9-1.1-3.9,0l-9.6,9.6l1.3,1.3L19.7,9C20,8.6,20.6,8.6,21,9c0.4,0.4,0.4,0.9,0,1.3L6.6,24.7c-1,1-2.9,1-3.9,0
      c-1.1-1.1-1.1-2.8,0-3.9l4-4l0,0L20.1,3.2c0.9-0.9,2.1-1.4,3.3-1.4c1.3,0,2.4,0.5,3.3,1.4c1.8,1.8,1.8,4.8,0,6.6L14,22.7l1.3,1.3
      l12.8-12.8C30.6,8.6,30.6,4.5,28.1,1.9z"/>
  </g>
</svg>
