<svg version="1.1" class="icon-number-svg" xmlns="http://www.w3.org/2000/svg" xmlns:xlink="http://www.w3.org/1999/xlink" x="0px" y="0px"
   viewBox="0 0 30.2 13.7" enable-background="new 0 0 30.2 13.7" xml:space="preserve">
<g>
  <path d="M3.6,13.7V3.1L1.4,5.4L0,4l3.9-4H6v13.7H3.6z"/>
  <path d="M8.5,13.7v-1.9c5.2-4,7.3-5.7,7.3-7.7c0-1.4-1.2-2-2.5-2c-1.6,0-2.8,0.6-3.6,1.6L8.3,2.2c1.2-1.5,3.1-2.2,5-2.2
    c2.6,0,4.9,1.5,4.9,4.2c0,2.5-2.3,4.7-5.9,7.5h6v2.1H8.5z"/>
  <path d="M20.2,11.6l1.3-1.5c0.9,1,2.2,1.6,3.7,1.6c1.8,0,2.8-0.8,2.8-2c0-1.3-1-1.9-2.9-1.9c-0.6,0-1.3,0-1.5,0V5.7
    c0.2,0,1,0,1.5,0c1.6,0,2.7-0.5,2.7-1.8c0-1.2-1.2-1.9-2.7-1.9c-1.4,0-2.5,0.5-3.4,1.5l-1.2-1.5C21.4,0.9,23,0,25.2,0
    C28.1,0,30,1.4,30,3.6c0,1.8-1.5,2.8-2.9,3c1.3,0.1,3.1,1.2,3.1,3.2c0,2.3-1.9,3.9-5,3.9C22.8,13.7,21.1,12.8,20.2,11.6z"/>
</g>
</svg>
