<svg version="1.1" id="icon-money-svg" xmlns="http://www.w3.org/2000/svg" xmlns:xlink="http://www.w3.org/1999/xlink" x="0px" y="0px"
   viewBox="0 0 30 20" enable-background="new 0 0 30 20" xml:space="preserve">
<g>
  <g>
    <path d="M6.9,20c-2.1,0-4.3-0.4-6.4-1.7L0,18V0.9l1.4,0.8c4.3,2.5,8.7,1.2,13.3-0.1c4.8-1.4,9.8-2.8,14.8,0.1L30,2v17.2l-1.4-0.8
      c-4.3-2.5-8.7-1.2-13.3,0.1C12.5,19.2,9.7,20,6.9,20z M1.9,16.9c4.2,2.2,8.4,0.9,12.9-0.3c4.3-1.3,8.8-2.5,13.4-0.6V3.1
      c-4.2-2.2-8.4-0.9-12.9,0.3C10.9,4.7,6.4,5.9,1.9,4V16.9z"/>
  </g>
  <g>
    <path d="M15,15.2c-2.8,0-5.2-2.3-5.2-5.2s2.3-5.2,5.2-5.2s5.2,2.3,5.2,5.2S17.8,15.2,15,15.2z M15,6.7c-1.8,0-3.3,1.5-3.3,3.3
      s1.5,3.3,3.3,3.3s3.3-1.5,3.3-3.3S16.8,6.7,15,6.7z"/>
  </g>
</g>
</svg>
