<svg version="1.1" xmlns="http://www.w3.org/2000/svg" xmlns:xlink="http://www.w3.org/1999/xlink" x="0px" y="0px"
   viewBox="0 0 40 40" enable-background="new 0 0 40 40" xml:space="preserve">
<g>
  <g>
    <path d="M0,0v40h40V0H0z M37.5,37.5h-35v-35h35V37.5z"/>
    <rect x="15.1" y="8.8" width="16.4" height="2.5"/>
    <rect x="15.1" y="18.7" width="16.4" height="2.5"/>
    <rect x="15.1" y="28.7" width="16.4" height="2.5"/>
    <path d="M9.9,12.1L9.9,12.1c1.1,0,2-0.9,2-2c0-1.1-0.9-2-2-2c-1.1,0-2,0.9-2,2C7.9,11.2,8.8,12.1,9.9,12.1z"/>
    <path d="M9.9,22L9.9,22c1.1,0,2-0.9,2-2c0-1.1-0.9-2-2-2c-1.1,0-2,0.9-2,2C7.9,21.1,8.8,22,9.9,22z"/>
    <path d="M9.9,31.9L9.9,31.9c1.1,0,2-0.9,2-2c0-1.1-0.9-2-2-2c-1.1,0-2,0.9-2,2C7.9,31,8.8,31.9,9.9,31.9z"/>
  </g>
</g>
</svg>
