<svg version="1.1" id="icon" xmlns="http://www.w3.org/2000/svg" xmlns:xlink="http://www.w3.org/1999/xlink" x="0px" y="0px"
   viewBox="0 0 40 40" enable-background="new 0 0 40 40" xml:space="preserve">
<g>
  <path d="M20,9.2C14,9.2,9.2,14,9.2,20c0,6,4.8,10.8,10.8,10.8c6,0,10.8-4.8,10.8-10.8C30.8,14,26,9.2,20,9.2z M20,28.3
    c-4.6,0-8.3-3.7-8.3-8.3s3.7-8.3,8.3-8.3s8.3,3.7,8.3,8.3S24.6,28.3,20,28.3z"/>
  <path d="M20.2,0h-0.4C8.9,0,0,8.9,0,19.8v0.4C0,31.1,8.9,40,19.8,40h0.4C31.1,40,40,31.1,40,20.2v-0.4C40,8.9,31.1,0,20.2,0z
     M37.5,20.2c0,9.5-7.8,17.3-17.3,17.3h-0.4c-9.5,0-17.3-7.8-17.3-17.3v-0.4c0-9.5,7.8-17.3,17.3-17.3h0.4c9.5,0,17.3,7.8,17.3,17.3
    V20.2z"/>
  <path d="M20,18c-1.1,0-2,0.9-2,2c0,1.1,0.9,2,2,2h0c1.1,0,2-0.9,2-2C22,18.9,21.1,18,20,18z"/>
</g>
</svg>
