<svg version="1.1" id="icon-percentage-svg" xmlns="http://www.w3.org/2000/svg" xmlns:xlink="http://www.w3.org/1999/xlink" x="0px" y="0px"
   viewBox="0 0 25 25" enable-background="new 0 0 25 25" xml:space="preserve" style="height: 15px;">
<path d="M0,6.2C0,2.7,2.5,0,6,0c3.6,0,6,2.7,6,6.2c0,3.4-2.4,6.1-6,6.1C2.5,12.3,0,9.6,0,6.2z M9.8,6.2c0-2.5-1.5-4.3-3.8-4.3
  c-2.2,0-3.8,1.8-3.8,4.3c0,2.4,1.6,4.2,3.8,4.2C8.3,10.4,9.8,8.6,9.8,6.2z M3.3,25L19.8,0h2.2L5.5,25H3.3z M13,18.9
  c0-3.5,2.5-6.2,6-6.2c3.5,0,6,2.7,6,6.2S22.6,25,19,25C15.5,25,13,22.3,13,18.9z M22.8,18.9c0-2.4-1.5-4.3-3.8-4.3
  c-2.3,0-3.8,1.8-3.8,4.3c0,2.4,1.5,4.2,3.8,4.2C21.3,23.1,22.8,21.3,22.8,18.9z"/>
</svg>
