<svg version="1.1" id="icon" xmlns="http://www.w3.org/2000/svg" xmlns:xlink="http://www.w3.org/1999/xlink" x="0px" y="0px"
	 viewBox="0 0 42.5 50" enable-background="new 0 0 42.5 50" xml:space="preserve">
	<g>
		<g>
			<path fill="#AAB4C4" d="M42.5,50H0V0h21.6c2,0,3.6,0.6,4.7,1.8C28.1,3.6,28,6.1,28,6.2l0,9.1h8.3c1.9,0,3.4,0.6,4.5,1.8
				c1.9,2.1,1.7,5.3,1.6,5.8V50z M2.4,47.6h37.7l0-24.8c0,0,0.3-2.6-1-4c-0.6-0.7-1.5-1-2.7-1H25.6V6.2c0-0.1,0-1.7-1-2.8
				c-0.7-0.7-1.7-1-3-1H2.4V47.6z"/>
		</g>
		<g>			
				<rect x="22.1" y="8.9" transform="matrix(0.6864 0.7272 -0.7272 0.6864 17.5647 -20.5127)" fill="#AAB4C4" width="20.9" height="2.4"/>
		</g>
		<g opacity="0.4">
			<polyline fill-rule="evenodd" clip-rule="evenodd" fill="#AAB4C4" points="26.8,4.5 26.8,16.5 38.2,16.5 		"/>
		</g>
		<g>
			<g>
				<path fill="#F07779" d="M14.5,24.7v3.9c0,0.2,0,1-0.7,1h-0.3v1.5h0.3c0.7,0,0.7,0.8,0.7,1v3.9c0,1.8,1.4,2.9,2.7,2.9h1.5v-1.6
					h-1.5c-0.5,0-1-0.6-1-1.2v-4c0-0.8-0.2-1.3-0.6-1.7c0.4-0.4,0.6-0.9,0.6-1.7v-4c0-0.8,0.5-1.2,1-1.2h1.5v-1.6h-1.5
					C15.8,21.8,14.5,22.9,14.5,24.7z"/>
			</g>
			<g>
				<path fill="#F07779" d="M28.8,29.6c-0.7,0-0.7-0.8-0.7-1v-3.9c0-1.8-1.4-2.9-2.7-2.9H24v1.6h1.5c0.6,0,1,0.5,1,1.2v4
					c0,0.8,0.2,1.3,0.6,1.7c-0.4,0.4-0.6,0.9-0.6,1.7v4c0,0.7-0.4,1.2-1,1.2H24v1.6h1.5c1.3,0,2.7-1.1,2.7-2.9v-3.9c0-0.2,0-1,0.7-1
					h0.3v-1.5H28.8z"/>
			</g>
		</g>
	</g>
</svg>