<svg version="1.1" id="Layer_1" xmlns="http://www.w3.org/2000/svg" xmlns:xlink="http://www.w3.org/1999/xlink" x="0px" y="0px"
   viewBox="0 0 212 112" enable-background="new 0 0 212 112" xml:space="preserve">
<g>
  <path d="M110.2,51.7c-1.1-1.1-2.6-1.7-4.2-1.7c-2.7,0-4.9,1.7-5.7,4.1c-0.2,0.6-0.3,1.2-0.3,1.9s0.1,1.3,0.3,1.9
    c0.8,2.4,3,4.1,5.7,4.1c3.3,0,6-2.7,6-6c0-0.2,0-0.5,0-0.7C111.8,53.9,111.2,52.7,110.2,51.7z"/>
  <path d="M98.1,54.5c-23.1,3-44.5,18.3-62,30.8c-8.9,6.3-17,12.1-24,15.5c0.9,1,1.5,2.2,1.7,3.6c7.4-3.6,15.6-9.4,24.6-15.9
    c18-12.9,38.1-27.2,59.9-30.1C98.1,57.7,98,56.9,98,56C98,55.5,98.1,55,98.1,54.5z"/>
  <path d="M198.6,9c-4.3,2.6-9.4,6.1-15.2,10.2c-19.2,13.3-44.8,31.1-69.8,34.3c0.3,0.8,0.4,1.6,0.4,2.5c0,0.5-0.1,1-0.1,1.5
    c26.1-3.2,52.3-21.4,71.9-35c5.7-3.9,10.9-7.6,15.3-10.2C200,11.4,199.1,10.3,198.6,9z"/>
  <path d="M10.2,101.7C9.1,100.7,7.6,100,6,100c-2.7,0-4.9,1.7-5.7,4.1C0.1,104.7,0,105.3,0,106s0.1,1.3,0.3,1.9
    c0.8,2.4,3,4.1,5.7,4.1c3.3,0,6-2.7,6-6c0-0.2,0-0.5,0-0.7C11.8,103.9,11.2,102.7,10.2,101.7z"/>
  <path d="M211.7,4.1c-0.8-2.4-3-4.1-5.7-4.1c-3.3,0-6,2.7-6,6c0,0.7,0.1,1.4,0.4,2c0.5,1.3,1.4,2.4,2.6,3.1c0.9,0.5,2,0.9,3.1,0.9
    c2.7,0,4.9-1.7,5.7-4.1c0.2-0.6,0.3-1.2,0.3-1.9S211.9,4.7,211.7,4.1z"/>
</g>
</svg>
