<svg version="1.1" xmlns="http://www.w3.org/2000/svg" xmlns:xlink="http://www.w3.org/1999/xlink" x="0px" y="0px"
   viewBox="0 0 40 40" enable-background="new 0 0 40 40" xml:space="preserve">
  <path d="M33.5,26.4c-2.4,0-4.5,1.4-5.6,3.4l-15-7.8c0.2-0.6,0.3-1.2,0.3-1.9c0-0.6-0.1-1.2-0.2-1.8l15.3-7.7c1.2,1.8,3.2,3,5.4,3
  c3.6,0,6.5-3,6.5-6.8S37.1,0,33.5,0c-3.6,0-6.5,3-6.5,6.8c0,0.5,0.1,1,0.2,1.5l-15.4,7.8c-1.2-1.7-3.1-2.7-5.2-2.7
  c-3.6,0-6.5,3-6.5,6.8s2.9,6.8,6.5,6.8c2.1,0,4-1.1,5.2-2.7l15.3,8c-0.1,0.3-0.1,0.7-0.1,1c0,3.7,2.9,6.8,6.5,6.8
  c3.6,0,6.5-3,6.5-6.8C40,29.5,37.1,26.4,33.5,26.4z M29.4,6.8c0-2.4,1.8-4.3,4.1-4.3s4.1,1.9,4.1,4.3s-1.8,4.3-4.1,4.3
  c-1.3,0-2.4-0.6-3.2-1.6c-0.5-0.6-0.8-1.4-0.9-2.3C29.4,7,29.4,6.9,29.4,6.8z M9.5,23.1c-0.8,0.8-1.8,1.4-3,1.4
  c-2.3,0-4.1-1.9-4.1-4.3s1.8-4.3,4.1-4.3c1.2,0,2.3,0.5,3,1.4c0.5,0.6,0.9,1.4,1,2.2c0,0.2,0.1,0.4,0.1,0.7c0,0.2,0,0.5-0.1,0.7
  C10.4,21.7,10.1,22.5,9.5,23.1z M33.5,37.5c-2.2,0-4-1.8-4.1-4.1c0-0.1,0-0.1,0-0.2c0-0.8,0.2-1.6,0.6-2.3c0.7-1.2,2-2,3.5-2
  c2.3,0,4.1,1.9,4.1,4.3C37.6,35.6,35.7,37.5,33.5,37.5z"/>
</svg>
