<svg version="1.1" xmlns="http://www.w3.org/2000/svg" xmlns:xlink="http://www.w3.org/1999/xlink" x="0px" y="0px"
	 viewBox="0 0 40 38.8" enable-background="new 0 0 40 38.8" xml:space="preserve">
	<path d="M11.3,20.9c-1.1,0-1.9,0.9-1.9,1.9s0.9,1.9,1.9,1.9h0.1c1.1,0,1.9-0.9,1.9-1.9S12.5,20.9,11.3,20.9z"/>
	<path d="M19.9,20.9c-1.1,0-1.9,0.9-1.9,1.9s0.9,1.9,1.9,1.9h0.1c1.1,0,1.9-0.9,1.9-1.9S21.1,20.9,19.9,20.9z"/>
	<path d="M28.6,20.9c-1.1,0-1.9,0.9-1.9,1.9s0.9,1.9,1.9,1.9h0.1c1.1,0,1.9-0.9,1.9-1.9S29.8,20.9,28.6,20.9z"/>
	<path d="M11.3,27.5c-1.1,0-1.9,0.9-1.9,1.9s0.9,1.9,1.9,1.9h0.1c1.1,0,1.9-0.9,1.9-1.9S12.5,27.5,11.3,27.5z"/>
	<path d="M19.9,27.5c-1.1,0-1.9,0.9-1.9,1.9s0.9,1.9,1.9,1.9h0.1c1.1,0,1.9-0.9,1.9-1.9S21.1,27.5,19.9,27.5z"/>
	<rect x="13.4" y="4.6" width="13.2" height="2.5"/>
	<path d="M34.1,4.6v2.5h3.4v6.8h-35V7.1h3.4V4.6H0v34.1h40V4.6H34.1z M2.5,36.2V16.4h35v19.9H2.5z"/>
	<polygon points="31.6,7.1 31.6,4.6 31.6,0 29.1,0 29.1,4.6 29.1,7.1 29.1,8.6 31.6,8.6 	"/>
	<polygon points="10.9,7.1 10.9,4.6 10.9,0 8.4,0 8.4,4.6 8.4,7.1 8.4,8.6 10.9,8.6 	"/>
</svg>
