<svg version="1.1" id="icon" xmlns="http://www.w3.org/2000/svg" xmlns:xlink="http://www.w3.org/1999/xlink" x="0px" y="0px"
	 viewBox="0 0 42 42" enable-background="new 0 0 42 42" xml:space="preserve">
	<g>
		<g>
			<path fill="#F1F2F5" d="M32.6,34.6H9.4c-1.1,0-2-0.9-2-2V9.4c0-1.1,0.9-2,2-2h23.3c1.1,0,2,0.9,2,2v23.3 C34.6,33.7,33.7,34.6,32.6,34.6z"/>
			<path fill="#AAB4C4" d="M32.3,35.8H9.7c-2,0-3.6-1.6-3.6-3.6V9.7c0-2,1.6-3.6,3.6-3.6h22.5c2,0,3.6,1.6,3.6,3.6v22.5
				C35.8,34.2,34.2,35.8,32.3,35.8z M9.7,8.6c-0.7,0-1.2,0.5-1.2,1.2v22.5c0,0.7,0.5,1.2,1.2,1.2h22.5c0.7,0,1.2-0.5,1.2-1.2V9.7 c0-0.7-0.5-1.2-1.2-1.2H9.7z"/>
		</g>
		<g>
			<polyline fill="#FFFFFF" points="23.1,2.4 23.1,21.3 18.9,21.3 18.9,2.4"/>
			<polygon fill="#606269" points="23.7,21.9 18.3,21.9 18.3,2.4 19.5,2.4 19.5,20.7 22.5,20.7 22.5,2.4 23.7,2.4"/>
		</g>
		<g>
			<g>
				<rect x="18.9" y="19.2" fill="#606269" width="2.1" height="2.1"/>
			</g>
			<g>
				<rect x="21" y="17.1" fill="#606269" width="2.1" height="2.1"/>
			</g>
			<g>
				<rect x="18.9" y="15" fill="#606269" width="2.1" height="2.1"/>
			</g>
			<g>
				<rect x="21" y="12.9" fill="#606269" width="2.1" height="2.1"/>
			</g>
			<g>
				<rect x="18.9" y="10.8" fill="#606269" width="2.1" height="2.1"/>
			</g>
			<g>
				<rect x="21" y="8.7" fill="#606269" width="2.1" height="2.1"/>
			</g>
			<g>
				<rect x="18.9" y="6.6" fill="#606269" width="2.1" height="2.1"/>
			</g>
			<g>
				<rect x="21" y="4.5" fill="#606269" width="2.1" height="2.1"/>
			</g>
			<g>
				<rect x="18.9" y="2.4" fill="#606269" width="2.1" height="2.1"/>
			</g>
		</g>
		<g>
			<path fill="#AAB4C4" d="M38.4,42H3.6c-2,0-3.6-1.6-3.6-3.6V3.6C0,1.6,1.6,0,3.6,0h34.9c2,0,3.6,1.6,3.6,3.6v34.9
				C42,40.4,40.4,42,38.4,42z M3.6,2.4c-0.7,0-1.2,0.5-1.2,1.2v34.9c0,0.7,0.5,1.2,1.2,1.2h34.9c0.7,0,1.2-0.5,1.2-1.2V3.6
				c0-0.7-0.5-1.2-1.2-1.2H3.6z"/>
		</g>
	</g>
</svg>
