<svg version="1.1" id="icon" xmlns="http://www.w3.org/2000/svg" xmlns:xlink="http://www.w3.org/1999/xlink" x="0px" y="0px"
	 viewBox="0 0 42.5 50" enable-background="new 0 0 42.5 50" xml:space="preserve">
	<g>
		<g>
			<path fill="#AAB4C4" d="M42.5,50H0V0h21.6c2,0,3.6,0.6,4.7,1.8C28.1,3.6,28,6.1,28,6.2l0,9.1h8.3c1.9,0,3.4,0.6,4.5,1.8
				c1.9,2.1,1.7,5.3,1.6,5.8V50z M2.4,47.6h37.7l0-24.8c0,0,0.3-2.6-1-4c-0.6-0.7-1.5-1-2.7-1H25.6V6.2c0-0.1,0-1.7-1-2.8
				c-0.7-0.7-1.7-1-3-1H2.4V47.6z"/>
		</g>
		<g>
				<rect x="22.1" y="8.9" transform="matrix(0.6864 0.7272 -0.7272 0.6864 17.5654 -20.5128)" fill="#AAB4C4" width="20.9" height="2.4"/>
		</g>
		<g opacity="0.4">
			<polyline fill-rule="evenodd" clip-rule="evenodd" fill="#AAB4C4" points="26.8,4.5 26.8,16.5 38.2,16.5 		"/>
		</g>
		<g>
			<g>
				<path fill="#A25CFD" d="M19,22.9h-5.4v13.3h2.2v-5H19c2.5,0,4.3-1.7,4.3-4.1S21.5,22.9,19,22.9z M15.8,24.9h3
					c1.3,0,2.2,0.9,2.2,2.1s-0.9,2.1-2.2,2.1h-3V24.9z"/>
			</g>
			<g>
				<path fill="#A25CFD" d="M29.7,26.2c-1,0-2,0.4-2.8,1.2v-1h-2v9.8h2v-6.7c0.4-0.6,1.5-1.3,2.2-1.3c0.2,0,0.4,0,0.5,0l0.3,0v-2.1
					H29.7z"/>
			</g>
		</g>
	</g>
</svg>