<svg version="1.1" xmlns="http://www.w3.org/2000/svg" xmlns:xlink="http://www.w3.org/1999/xlink" x="0px" y="0px"
   viewBox="0 0 30 32" enable-background="new 0 0 30 32" xml:space="preserve">
<g>
	<path fill="none" d="M9.988,23.643c1.475,0.859,3.182,1.359,5.008,1.359c5.511,0,9.995-4.486,9.995-10
		c0-1.292-0.254-2.524-0.702-3.659L9.988,23.643z"/>
	<path fill="none" d="M14.996,5.003c-5.511,0-9.995,4.486-9.995,10c0,1.292,0.254,2.523,0.702,3.658l14.3-12.299
		C18.529,5.503,16.822,5.003,14.996,5.003z"/>
	<g>
		<path fill="none" d="M9.988,23.643c1.475,0.859,3.182,1.359,5.008,1.359c5.511,0,9.995-4.486,9.995-10
			c0-1.292-0.254-2.524-0.702-3.659L9.988,23.643z"/>
		<path fill="none" d="M14.996,5.003c-5.511,0-9.995,4.486-9.995,10c0,1.292,0.254,2.523,0.702,3.658l14.3-12.299
			C18.529,5.503,16.822,5.003,14.996,5.003z"/>
		<g>
			<path fill="none" d="M14.996,5.003c-5.511,0-9.995,4.486-9.995,10c0,1.292,0.254,2.523,0.702,3.658l14.3-12.299
				C18.529,5.503,16.822,5.003,14.996,5.003z"/>
			<path fill="none" d="M9.988,23.643c1.475,0.859,3.182,1.359,5.008,1.359c5.511,0,9.995-4.486,9.995-10
				c0-1.292-0.254-2.524-0.702-3.659L9.988,23.643z"/>
			<path d="M29.988,15.003c0-8.284-6.712-15-14.992-15c-0.236-0.01-0.483,0.008-0.735,0.037
				C6.325,0.426,0.004,6.967,0.004,15.003c-0.014,0.268,0.006,0.55,0.042,0.838c0.437,7.892,6.953,14.162,14.949,14.162
				c7.901,0,14.359-6.119,14.935-13.877C29.993,15.734,30.016,15.358,29.988,15.003z M5.002,15.003c0-5.514,4.483-10,9.995-10
				c1.826,0,3.533,0.5,5.008,1.359l-14.3,12.299C5.256,17.526,5.002,16.295,5.002,15.003z M14.996,25.003
				c-1.826,0-3.533-0.501-5.008-1.359l14.3-12.299c0.448,1.135,0.702,2.366,0.702,3.659C24.991,20.517,20.507,25.003,14.996,25.003z
				"/>
		</g>
	</g>
</g>
</svg>
