<svg version="1.1" id="icon-wieght-svg" xmlns="http://www.w3.org/2000/svg" xmlns:xlink="http://www.w3.org/1999/xlink" x="0px" y="0px"
   viewBox="0 0 28.9 30" enable-background="new 0 0 28.9 30" xml:space="preserve">
<path d="M25.9,11.5c-0.1-1.4-1.2-2.6-2.7-2.6h-4.8c0.8-0.9,1.3-2.2,1.3-3.5c0-3-2.4-5.4-5.3-5.4S9.1,2.4,9.1,5.4
  c0,1.4,0.5,2.6,1.3,3.5H5.6C4.2,8.9,3,10,3,11.5L0,27.2l0,0.2C0,28.8,1.2,30,2.7,30h23.6c1.5,0,2.7-1.2,2.7-2.7L25.9,11.5z M14.4,2
  c1.9,0,3.4,1.5,3.4,3.4s-1.5,3.4-3.4,3.4s-3.4-1.5-3.4-3.4S12.6,2,14.4,2z M26.2,28H2.7C2.3,28,2,27.8,2,27.4l2.9-15.7l0-0.2
  c0-0.4,0.3-0.7,0.7-0.7h17.7c0.4,0,0.7,0.3,0.7,0.7l2.9,15.8C26.9,27.8,26.6,28,26.2,28z"/>
</svg>
