<svg version="1.1" xmlns="http://www.w3.org/2000/svg" xmlns:xlink="http://www.w3.org/1999/xlink" x="0px" y="0px"
   viewBox="0 0 40 40" enable-background="new 0 0 40 40" xml:space="preserve">
  <polygon points="17.1,0 17.1,16.4 19.5,16.4 19.5,2.4 37.6,2.4 37.6,37.6 19.5,37.6 19.5,23.6 17.1,23.6 17.1,40 40,40 40,0  "/>
  <polygon points="19.5,18.8 17.1,18.8 4.8,18.8 7.4,16.4 12.2,11.8 10.6,10.1 3.9,16.4 3.1,17.1 0,20 3.1,22.9 3.9,23.6 10.6,29.9
    12.2,28.2 7.4,23.6 4.8,21.2 17.1,21.2 19.5,21.2 26.1,21.2 26.1,18.8   "/>
</svg>
