<svg version="1.1" xmlns="http://www.w3.org/2000/svg" xmlns:xlink="http://www.w3.org/1999/xlink" x="0px" y="0px"
   viewBox="0 0 40 31.5" enable-background="new 0 0 40 31.5" xml:space="preserve">
  <g>
    <g>
      <path d="M20,24.1c-3.9,0-7-3.2-7-7.1c0-3.9,3.1-7.1,7-7.1s7,3.2,7,7.1C27,21,23.9,24.1,20,24.1z M20,12.6c-2.4,0-4.4,2-4.4,4.5
        s2,4.5,4.4,4.5s4.4-2,4.4-4.5S22.4,12.6,20,12.6z"/>
    </g>
    <g>
      <path d="M36,31.5H4.1c-0.4,0-0.7-0.1-1.1-0.2c-1.1-0.3-2-1-2.5-2.1c-0.2-0.4-0.3-0.8-0.4-1.3C0,27.5,0,27.1,0,26.6V9.2
        c0-2,0.3-3.9,2.6-4.7c0,0,0.1,0,0.2-0.1L3,4.4c0.1,0,0.3-0.1,0.4-0.1c0.7-0.2,6.5-0.9,9.8-1.2C13.9,1.7,15.1,0,16.5,0h6.8
        c1.4,0,2.6,1.7,3.4,3.4c2.3,0.2,9.4,0.9,9.4,0.9c0,0,0,0,0,0c2.1,0,3.9,1.8,3.9,4v19.3C40,29.7,38.2,31.5,36,31.5z M3.5,6.9
        C2.9,7.1,2.6,7.2,2.6,9.2v17.4c0,0.4,0,0.7,0.1,1c0,0.3,0.1,0.4,0.1,0.6c0.2,0.4,0.4,0.6,0.8,0.7c0.2,0.1,0.3,0.1,0.4,0.1H36
        c0.8,0,1.4-0.6,1.4-1.4V8.2c0-0.8-0.6-1.4-1.4-1.4c-0.1,0-9.9-0.9-10.2-0.9L25,5.8l-0.3-0.7c-0.5-1.1-1.2-2.2-1.6-2.5h-6.4
        c-0.3,0.3-1,1.3-1.4,2.2L15,5.5l-0.8,0.1C11,5.8,4.5,6.7,3.9,6.8c-0.1,0-0.2,0-0.2,0.1L3.5,6.9z"/>
    </g>
  </g>
</svg>
