<svg version="1.1" id="Layer_1" xmlns="http://www.w3.org/2000/svg" xmlns:xlink="http://www.w3.org/1999/xlink" x="0px" y="0px"
   viewBox="0 0 40 34" enable-background="new 0 0 40 34" xml:space="preserve">
<g>
  <path d="M20,0C9,0,0,8.8,0,19.7c0,5,1.9,9.7,5.4,13.4l0.9,1l0.9-1c3.4-3.6,7.9-5.5,12.8-5.5c4.9,0,9.5,2,12.8,5.5l0.9,1l0.9-1
    c3.5-3.7,5.4-8.4,5.4-13.4C40,8.8,31,0,20,0z M33.7,30.4C30,27,25.1,25,20,25c-5.1,0-10,1.9-13.7,5.3c-1.8-2.2-3-4.7-3.5-7.4h3.7
    v-2.5h-4c0-0.3,0-0.6,0-0.8c0-4,1.4-7.8,3.8-10.7L9,11.6l1.8-1.8L8,7.2c2.8-2.6,6.6-4.3,10.7-4.6v3.9h2.5V2.5
    c4.2,0.3,8.1,2.1,10.9,4.8l-2.5,2.5l1.8,1.8l2.4-2.4c2.3,2.9,3.7,6.5,3.7,10.5c0,0.3,0,0.6,0,0.8h-4V23h3.7
    C36.6,25.7,35.4,28.2,33.7,30.4z"/>
  <path d="M18.9,18.4c-0.8,0.8-1,2-0.3,2.7c0.7,0.7,1.9,0.5,2.7-0.3c0.8-0.8,6.1-7.6,5.7-8C26.5,12.4,19.7,17.6,18.9,18.4z"/>
</g>
</svg>
