<svg version="1.1" class="filetype-docx" xmlns="http://www.w3.org/2000/svg" xmlns:xlink="http://www.w3.org/1999/xlink" x="0px" y="0px"
   viewBox="0 0 60 80" enable-background="new 0 0 60 80" xml:space="preserve">
<g>
  <path d="M26.6,2c2.3,0,4,0.6,5.1,1.8c1.8,1.8,1.7,4.5,1.7,4.5l0,0v0v17.4v2h2h16.2c2.1,0,3.6,0.6,4.7,1.8c2.2,2.4,1.7,6.7,1.7,6.7
    l0,0.1v0.1V78H2V2H26.6 M26.6,0C17.4,0,0,0,0,0v80h59.9V36.5c0,0,1.3-10.7-8.4-10.7H35.4V8.4C35.4,8.4,35.7,0,26.6,0L26.6,0z"/>
</g>
<rect x="7.5" y="11.1" width="26.6" height="5"/>
<rect x="7.5" y="20.1" width="26.6" height="5"/>
<rect x="42.8" y="51.5" width="10.4" height="2"/>
<rect x="42.8" y="58" width="10.4" height="2"/>
<rect x="42.8" y="64.5" width="10.4" height="2"/>
<rect x="42.8" y="71.1" width="10.4" height="2"/>
<rect x="7.5" y="70.1" width="27" height="3"/>
<path d="M53.2,47.5H7.5V31.8h45.7V47.5z M9.5,45.5h41.7V33.8H9.5V45.5z"/>
<path d="M48.9,39c0,1.4-1.1,2.5-2.5,2.5l0,0c-1.4,0-2.5-1.1-2.5-2.5l0,0c0-1.4,1.1-2.5,2.5-2.5l0,0C47.8,36.5,48.9,37.6,48.9,39
  L48.9,39z"/>
<rect x="38.5" y="51.5" width="2" height="21.6"/>
<polygon points="9.5,47.1 8.1,45.7 19.1,34.6 29.8,45.7 28.3,47.1 19.1,37.5 "/>
<polygon points="45.7,47.2 33.6,39.1 25.6,43.6 24.6,41.8 33.7,36.8 46.8,45.6 "/>
<rect x="12" y="52.1" width="22.5" height="2"/>
<path d="M10.5,53.1c0,0.8-0.7,1.5-1.5,1.5l0,0c-0.8,0-1.5-0.7-1.5-1.5l0,0c0-0.8,0.7-1.5,1.5-1.5l0,0C9.8,51.6,10.5,52.2,10.5,53.1
  L10.5,53.1z"/>
<rect x="12" y="58" width="22.5" height="2"/>
<path d="M10.5,59c0,0.8-0.7,1.5-1.5,1.5l0,0c-0.8,0-1.5-0.7-1.5-1.5l0,0c0-0.8,0.7-1.5,1.5-1.5l0,0C9.8,57.5,10.5,58.2,10.5,59
  L10.5,59z"/>
<rect x="12" y="64" width="22.5" height="2"/>
<path d="M10.5,65c0,0.8-0.7,1.5-1.5,1.5l0,0c-0.8,0-1.5-0.7-1.5-1.5l0,0c0-0.8,0.7-1.5,1.5-1.5l0,0C9.8,63.5,10.5,64.1,10.5,65
  L10.5,65z"/>
</svg>
