<svg version="1.1" id="icon-data-svg" xmlns="http://www.w3.org/2000/svg" xmlns:xlink="http://www.w3.org/1999/xlink" x="0px" y="0px"
   viewBox="0 0 30 30" enable-background="new 0 0 30 30" xml:space="preserve">
<path d="M15.1,0h-0.3C6.7,0,0,6.7,0,14.9v0.3C0,23.3,6.7,30,14.9,30h0.3C23.3,30,30,23.3,30,15.1v-0.3C30,6.7,23.3,0,15.1,0z
   M14.1,2V28c-3.1-0.9-5.6-6.5-5.6-13S10.9,3,14.1,2z M15.9,28V2c3.1,0.9,5.6,6.5,5.6,13S19.1,27,15.9,28z M1.9,15.1v-0.3
  c0-5.5,3.4-10.1,8.2-12C7.9,5.5,6.6,9.9,6.6,15s1.4,9.5,3.5,12.2C5.3,25.3,1.9,20.6,1.9,15.1z M28.1,15.1c0,5.5-3.4,10.1-8.2,12
  c2.1-2.7,3.5-7.1,3.5-12.2S22.1,5.5,20,2.8c4.8,1.9,8.2,6.6,8.2,12V15.1z"/>
</svg>
