<svg version="1.1" id="Layer_1" xmlns="http://www.w3.org/2000/svg" xmlns:xlink="http://www.w3.org/1999/xlink" x="0px" y="0px"
   viewBox="0 0 40 40" enable-background="new 0 0 40 40" xml:space="preserve">
<g>
  <path d="M20.2,0h-0.4C8.9,0,0,8.9,0,19.8v0.4C0,31.1,8.9,40,19.8,40h0.4C31.1,40,40,31.1,40,20.2v-0.4C40,8.9,31.1,0,20.2,0z
     M37.5,20.2c0,9.5-7.8,17.3-17.3,17.3h-0.4c-9.5,0-17.3-7.8-17.3-17.3v-0.4c0-9.5,7.8-17.3,17.3-17.3h0.4c9.5,0,17.3,7.8,17.3,17.3
    V20.2z"/>
  <polygon points="21.5,11 19,11 19,18.8 11.2,18.8 11.2,21.3 19,21.3 19,29 21.5,29 21.5,21.3 29.3,21.3 29.3,18.8 21.5,18.8  "/>
</g>
</svg>
