<svg version="1.1" xmlns="http://www.w3.org/2000/svg" xmlns:xlink="http://www.w3.org/1999/xlink" x="0px" y="0px"
	 viewBox="0 0 24 32" enable-background="new 0 0 24 32" xml:space="preserve">
<path d="M22.909,14.933h-1.091v-6.01c0-0.021-0.002-0.042-0.004-0.06C21.739,3.971,17.352,0,12,0
	C6.65,0,2.261,3.971,2.186,8.86c0,0.021-0.004,0.042-0.004,0.063v6.01H1.091C0.49,14.933,0,15.412,0,16v14.933
	C0,31.521,0.49,32,1.091,32h21.818C23.51,32,24,31.521,24,30.933V16C24,15.412,23.51,14.933,22.909,14.933z M13.622,27.098
	c0.051,0.146,0.026,0.308-0.066,0.436c-0.092,0.125-0.241,0.2-0.398,0.2h-2.314c-0.158,0-0.305-0.075-0.396-0.2
	c-0.094-0.127-0.117-0.29-0.064-0.436l0.959-2.752c-0.775-0.275-1.295-0.996-1.295-1.8c0-1.058,0.878-1.919,1.956-1.919
	c1.076,0,1.952,0.861,1.952,1.919c0,0.804-0.52,1.525-1.295,1.8L13.622,27.098z M17.455,14.933H6.545c0,0-0.002-5.965,0-5.983
	C6.565,6.362,9.175,4.256,12,4.256c2.83,0,5.433,1.69,5.455,4.277C17.457,8.552,17.455,14.933,17.455,14.933z"/>
</svg>
